<svg id="Ebene_1" data-name="Ebene 1" xmlns="http://www.w3.org/2000/svg" xmlns:xlink="http://www.w3.org/1999/xlink" viewBox="0 0 680 510.51"><defs><style>.cls-1,.cls-3{opacity:0.63;}.cls-1{fill:url(#Unbenannter_Verlauf_27);}.cls-2{opacity:0.51;}.cls-3{fill:url(#Unbenannter_Verlauf_36);}.cls-4{opacity:0.74;}.cls-5{opacity:0.43;}.cls-6{fill:url(#linear-gradient);}.cls-7{opacity:0.22;}.cls-8{fill:url(#linear-gradient-2);}.cls-9{opacity:0.71;}.cls-10{fill:#fff;}.cls-11{opacity:0.72;}.cls-12{fill:url(#linear-gradient-3);}.cls-13{fill:url(#linear-gradient-4);}.cls-14{fill:url(#linear-gradient-5);}.cls-15{fill:#ffb68e;}.cls-16{fill:url(#Unbenannter_Verlauf_14);}.cls-17{fill:#dbdff0;}.cls-18{fill:#eea886;}.cls-19,.cls-38{fill:#79c0fb;}.cls-20{fill:#152b3d;}.cls-21{fill:url(#Unbenannter_Verlauf_14-2);}.cls-22{fill:url(#Unbenannter_Verlauf_14-3);}.cls-23{fill:#323657;}.cls-24{fill:url(#Unbenannter_Verlauf_14-4);}.cls-25{fill:#0c173d;}.cls-26{fill:url(#Unbenannter_Verlauf_14-5);}.cls-27{fill:url(#Unbenannter_Verlauf_14-6);}.cls-28{fill:url(#Unbenannter_Verlauf_14-7);}.cls-29{fill:url(#Unbenannter_Verlauf_14-8);}.cls-30,.cls-43{fill:#4f4f4f;}.cls-30{opacity:0.13;}.cls-31{fill:#efa884;}.cls-32{fill:url(#Unbenannter_Verlauf_53);}.cls-33{fill:#000538;}.cls-34{fill:url(#Unbenannter_Verlauf_4);}.cls-35{fill:url(#Unbenannter_Verlauf_53-2);}.cls-36{fill:url(#Unbenannter_Verlauf_53-3);}.cls-37{fill:#e5e5e5;}.cls-38{opacity:0.3;}.cls-39{fill:#16477c;}.cls-40{fill:#fabc1f;}.cls-41{fill:#fcdb2c;}.cls-42{fill:url(#Unbenannter_Verlauf_53-4);}.cls-43{opacity:0.1;}.cls-44{fill:url(#Unbenannter_Verlauf_36-2);}.cls-45{fill:url(#Unbenannter_Verlauf_36-3);}.cls-46{fill:url(#Unbenannter_Verlauf_36-4);}.cls-47{fill:url(#Unbenannter_Verlauf_36-5);}</style><linearGradient id="Unbenannter_Verlauf_27" x1="-69.66" y1="295.93" x2="806.87" y2="204.96" gradientUnits="userSpaceOnUse"><stop offset="0" stop-color="#fff"/><stop offset="1" stop-color="#79c0fb"/></linearGradient><linearGradient id="Unbenannter_Verlauf_36" x1="340.74" y1="22.86" x2="344.94" y2="221.64" gradientTransform="translate(171.56 516.24) rotate(-90)" gradientUnits="userSpaceOnUse"><stop offset="0" stop-color="#0480ef"/><stop offset="0.97" stop-color="#79c0fb"/></linearGradient><linearGradient id="linear-gradient" x1="9.26" y1="421.55" x2="554.22" y2="421.55" gradientTransform="translate(62.16 -311.07)" gradientUnits="userSpaceOnUse"><stop offset="0" stop-color="#ffc05c"/><stop offset="1" stop-color="#ff3857"/></linearGradient><linearGradient id="linear-gradient-2" x1="9.26" y1="419.53" x2="554.22" y2="419.53" gradientTransform="translate(62.16 -311.07)" gradientUnits="userSpaceOnUse"><stop offset="0" stop-color="#40d5e6"/><stop offset="1" stop-color="#57f"/></linearGradient><linearGradient id="linear-gradient-3" x1="592.38" y1="5288.09" x2="610.87" y2="5370.04" gradientTransform="translate(3627.51 -4037.09) rotate(45)" xlink:href="#linear-gradient"/><linearGradient id="linear-gradient-4" x1="594.77" y1="5299.35" x2="605.45" y2="5346.67" gradientTransform="translate(3627.51 -4037.09) rotate(45)" xlink:href="#linear-gradient"/><linearGradient id="linear-gradient-5" x1="369.4" y1="95.35" x2="333.7" y2="171.47" gradientTransform="matrix(1, 0, 0, 1, 0, 0)" xlink:href="#linear-gradient"/><linearGradient id="Unbenannter_Verlauf_14" x1="9867.56" y1="9447.52" x2="9844.74" y2="9486.52" gradientTransform="matrix(-0.65, 0.76, -0.76, -0.65, 13691.27, -1405.79)" gradientUnits="userSpaceOnUse"><stop offset="0" stop-color="#0c173d"/><stop offset="0.97" stop-color="#16477c"/></linearGradient><linearGradient id="Unbenannter_Verlauf_14-2" x1="2021.77" y1="294.17" x2="2012.28" y2="461.79" gradientTransform="translate(-1799.61)" xlink:href="#Unbenannter_Verlauf_14"/><linearGradient id="Unbenannter_Verlauf_14-3" x1="2047.13" y1="295.6" x2="2037.64" y2="463.23" gradientTransform="translate(-1799.61)" xlink:href="#Unbenannter_Verlauf_14"/><linearGradient id="Unbenannter_Verlauf_14-4" x1="1834.05" y1="626.22" x2="1811.23" y2="665.22" gradientTransform="translate(-1799.61)" xlink:href="#Unbenannter_Verlauf_14"/><linearGradient id="Unbenannter_Verlauf_14-5" x1="12238.99" y1="1009.54" x2="12253.37" y2="1034.42" gradientTransform="matrix(-1, 0, 0, 1, 12397.94, 0)" xlink:href="#Unbenannter_Verlauf_14"/><linearGradient id="Unbenannter_Verlauf_14-6" x1="11751.35" y1="269.5" x2="11763.01" y2="426.37" gradientTransform="matrix(-1, 0, 0, 1, 12397.94, 0)" xlink:href="#Unbenannter_Verlauf_14"/><linearGradient id="Unbenannter_Verlauf_14-7" x1="11779.51" y1="267.4" x2="11791.17" y2="424.28" gradientTransform="matrix(-1, 0, 0, 1, 12397.94, 0)" xlink:href="#Unbenannter_Verlauf_14"/><linearGradient id="Unbenannter_Verlauf_14-8" x1="12244.83" y1="1006.16" x2="12259.22" y2="1031.05" gradientTransform="matrix(-1, 0, 0, 1, 12397.94, 0)" xlink:href="#Unbenannter_Verlauf_14"/><linearGradient id="Unbenannter_Verlauf_53" x1="178.55" y1="192.83" x2="3.6" y2="316.46" gradientUnits="userSpaceOnUse"><stop offset="0" stop-color="#04808a"/><stop offset="0.97" stop-color="#103257"/></linearGradient><linearGradient id="Unbenannter_Verlauf_4" x1="14487.65" y1="385.91" x2="14555.89" y2="385.91" gradientTransform="matrix(-1, 0, 0, 1, 14594.11, 0)" gradientUnits="userSpaceOnUse"><stop offset="0" stop-color="#0c173d"/><stop offset="0.97" stop-color="#103257"/></linearGradient><linearGradient id="Unbenannter_Verlauf_53-2" x1="191.62" y1="211.32" x2="16.67" y2="334.96" xlink:href="#Unbenannter_Verlauf_53"/><linearGradient id="Unbenannter_Verlauf_53-3" x1="181.52" y1="197.03" x2="6.57" y2="320.67" xlink:href="#Unbenannter_Verlauf_53"/><linearGradient id="Unbenannter_Verlauf_53-4" x1="175.77" y1="188.89" x2="0.81" y2="312.52" xlink:href="#Unbenannter_Verlauf_53"/><linearGradient id="Unbenannter_Verlauf_36-2" x1="284.86" y1="411.08" x2="467.93" y2="407.8" gradientTransform="matrix(1, 0, 0, 1, 0, 0)" xlink:href="#Unbenannter_Verlauf_36"/><linearGradient id="Unbenannter_Verlauf_36-3" x1="484.03" y1="401.72" x2="334.61" y2="409.52" gradientTransform="matrix(1, 0, 0, 1, 0, 0)" xlink:href="#Unbenannter_Verlauf_36"/><linearGradient id="Unbenannter_Verlauf_36-4" x1="230.96" y1="373.32" x2="363.27" y2="370.94" gradientTransform="matrix(1, 0, 0, 1, 0, 0)" xlink:href="#Unbenannter_Verlauf_36"/><linearGradient id="Unbenannter_Verlauf_36-5" x1="475.59" y1="407.85" x2="477.43" y2="356.74" gradientTransform="matrix(1, 0, 0, 1, 0, 0)" xlink:href="#Unbenannter_Verlauf_36"/></defs><path class="cls-1" d="M674.05,355.82a87.45,87.45,0,0,0-8.3-7.27c2.26-4,4.38-8.15,6.2-12.18,4.07-9,6.61-17.66,5.77-24.12-2-15.21-10.66-9.25-16.58-6.92-2.89,1.14-5.12,1.41-5.61-2.05-.26-1.87.75-5.36,2.28-10s3.69-10.57,5.61-17.1c.5-1.73,1-3.51,1.46-5.32a.5.5,0,0,1,0-.13q.62-2.46,1.16-5c1.75-8.22,2.68-17,1.57-25.4,0-.32-.09-.64-.13-1-1.94-12.91-8.77-25-24.89-33.29-.83-.42-1.67-.83-2.55-1.23-2.7-1.25-5.34-2.34-7.93-3.29-2.18-.8-4.32-1.5-6.42-2.12l-2.46-.69a96,96,0,0,0-15.83-2.8c-19.56-1.83-36.2,2.29-52.36,1.81-1.64-.05-3.27-.15-4.9-.3l-.75-.07-.22,0-1.73-.21a57.44,57.44,0,0,1-7.32-1.46l-.12,0-.24-.07a56.64,56.64,0,0,1-16-7.29l-.12-.07-.42-.28c-.53-.35-1.06-.72-1.59-1.09l-.34-.24,0,0c-1.58-1.13-3.17-2.36-4.77-3.72-5.84-4.93.73-37.72-11.55-74.65-.07-.21-.13-.41-.2-.61-.43-1.27-.89-2.55-1.36-3.83-.06-.14-.11-.29-.16-.44-.48-1.26-1-2.54-1.51-3.82q-1.14-2.78-2.45-5.57c-1-2.07-2-4.14-3.11-6.21-.37-.68-.75-1.36-1.13-2-.05-.1-.12-.21-.18-.32s-.19-.34-.29-.51c-1-1.81-2.11-3.61-3.27-5.42l-.25-.39-.86-1.31q-1.83-2.77-4.05-5.6a131.71,131.71,0,0,0-14.68-15.65,188,188,0,0,0-14.51-12c-4.56-3.39-9.35-6.67-14.31-9.76a206.61,206.61,0,0,0-18.34-10.23c-4.1-2-8.25-3.87-12.41-5.55-1.24-.5-2.48-1-3.72-1.45l-2.7-1c-1.36-.49-2.73-.95-4.1-1.4q-13.68-4.42-26.54-7.49l-1.64-.38C349.3,1.71,327.46-.46,307.55.08l-2.44.08A192.27,192.27,0,0,0,255.59,8.4L254,8.91a176.83,176.83,0,0,0-33.55,14.68c-51.4,29.16-79.58,79-92.74,111.92-13.32,33.34-55.27-15.7-93.29,8.9C-25.28,183,3.2,252.58,40.88,307.35c.08.13.16.25.25.37q3.93,5.7,8,11.16c.44.6.87,1.19,1.31,1.77q3.3,4.44,6.61,8.69c.7.9,1.4,1.8,2.11,2.69l3,3.79L63.9,338l1.9,2.33,2.5,3c1.66,2,3.31,3.95,4.93,5.84h0l.56.64-.14.08h0q-2.45,1.31-5,2.69L66.2,354l-1.91,1.08-1.77,1-3,1.74-2.12,1.24q-3.32,1.95-6.63,4l-1.31.82c-2.69,1.67-5.36,3.38-8,5.13l-.25.17C3.42,394.35-10.72,502.23,9.5,505.62c90.4,15.16,164.07-10.46,211.74-6,10.56,1,21.46,5,33.65,6.76l1.64.23a404.57,404.57,0,0,0,49.64,3.79l2.46,0a553.08,553.08,0,0,0,65.83-3.32l1.65-.17q12.9-1.43,26.61-3.45c1.38-.2,2.74-.42,4.12-.64l2.7-.45,3.73-.67c4.17-.77,8.33-1.63,12.44-2.56,6.29-1.41,12.46-3,18.4-4.7,5-1.42,9.78-2.93,14.34-4.49,5.2-1.78,10.09-3.63,14.55-5.51a124.72,124.72,0,0,0,14.73-7.2c1.48-.86,2.84-1.72,4.06-2.57l.86-.6.25-.18c1.16-.83,2.25-1.66,3.29-2.49l.28-.24.19-.15c.38-.31.76-.62,1.12-.94q1.68-1.42,3.12-2.85c.88-.86,1.7-1.71,2.46-2.56.53-.59,1-1.18,1.51-1.76l.17-.2c.47-.59.93-1.18,1.36-1.76l.2-.28c12.32-17,5.73-32.07,11.58-34.33,1.61-.63,3.2-1.19,4.79-1.71h0l.33-.11,1.61-.51.41-.12.13,0a99.68,99.68,0,0,1,16.06-3.35l.24,0h.12c2.45-.31,4.9-.52,7.35-.68.57,0,1.15-.07,1.73-.09h.22l.74,0c1.64-.07,3.27-.11,4.92-.14,16.21-.21,32.9,1.68,52.5.84,5.09-.22,10.36-.62,15.88-1.29l2.47-.32q3.16-.42,6.44-1c2.59-.44,5.25-.94,8-1.51l2.56-.57c16.17-3.81,23-9.37,25-15.31,0-.15.09-.29.13-.44,1.11-3.88.17-7.9-1.58-11.68-.36-.78-.75-1.54-1.16-2.3l0-.06c-.47-.83-1-1.65-1.47-2.45-1.92-3-4-5.7-5.62-7.86s-2.55-3.74-2.29-4.6c.49-1.59,2.73-1.46,5.63-.94,5.93,1.07,14.63,3.82,16.63-3.18C680.68,363.94,678.13,360,674.05,355.82Z"/><g class="cls-2"><rect class="cls-3" x="212.08" y="-100.14" width="263.63" height="544.96" rx="8.68" transform="translate(516.24 -171.56) rotate(90)"/></g><g class="cls-4"><g class="cls-5"><path class="cls-6" d="M616.38,127.83v8.47c-7.61-2.19-15.19-4.48-22.83-6.84q-8.76-2.7-17.56-5.51c-.94-.28-1.89-.58-2.83-.88-16.36-5.16-32.86-10.37-49.86-15.16l-.19-.06q-6.37-1.8-12.84-3.49c-13.3-3.51-26.94-6.68-41.11-9.29a435.51,435.51,0,0,0-110.27-6.72,325.87,325.87,0,0,0-62.25,9.84c-6.47,1.71-12.61,3.54-18.5,5.48-2.28.73-4.5,1.49-6.7,2.26-1.58.55-3.14,1.11-4.66,1.68a.2.2,0,0,0-.11,0c-4.2,1.52-8.28,3.09-12.23,4.66-.69.26-1.38.54-2.05.81-4.81,1.92-9.47,3.83-14,5.71-1.11.46-2.19.9-3.3,1.34-21.62,8.86-42.59,16.67-68,19.7a1.46,1.46,0,0,0-.31,0c-2.14.24-4.33.45-6.52.63-1.89.16-3.81.3-5.75.39s-3.62.16-5.48.21c-8.3.19-15.83,0-22.61-.37-16.64-1-28.89-3.58-37.55-6.31-3.09-1-5.72-2-7.92-2.9-6.5-2.78-9.36-5.16-9.47-5.51v-10c0,.07,2.22,3.14,9.47,6.69a66.58,66.58,0,0,0,7.92,3.2c8.3,2.86,20.36,5.54,37.55,6.78,6.39.46,13.5.72,21.39.72h1.17c1.86,0,3.69-.05,5.53-.11s3.86-.19,5.77-.35c1.06-.07,2.09-.16,3.11-.26s2.25-.23,3.39-.36l.31,0c23.33-2.87,42.86-10.9,64.75-19.93,4.72-1.94,9.5-3.91,14.47-5.89,3.31-1.34,6.69-2.64,10.17-4l.11,0c3.3-1.25,6.72-2.49,10.22-3.7.36-.13.75-.25,1.11-.39a328.83,328.83,0,0,1,32.33-9.33,346.9,346.9,0,0,1,57.47-8.36A453.6,453.6,0,0,1,410,80.29a459.52,459.52,0,0,1,59.14,6.77c18.25,3.26,35.67,7.43,52.53,12,4.36,1.2,8.72,2.42,13,3.67l1.27.37c13.56,4,26.84,8.11,40,12.27.86.27,1.7.55,2.56.81q7.5,2.39,15,4.71Q605,124.49,616.38,127.83Z"/></g><g class="cls-7"><path class="cls-8" d="M616.38,64.3v9c-8.08,2-16.17,4.36-24.33,7-5.34,1.73-10.67,3.6-16.06,5.58-12.58,4.62-25.3,9.87-38.22,15.57-1,.44-2,.9-3,1.34-3.34,1.48-6.67,3-10,4.53-.45.19-.92.41-1.39.62-16.39,7.51-33.14,15.64-50.42,24A235.78,235.78,0,0,1,447,142.75c-5.09,1.77-10,3.27-14.86,4.54a167.12,167.12,0,0,1-22.25,4.26A148.62,148.62,0,0,1,392,152.63c-29,0-53.77-8.66-77.08-19.81-4.33-2.06-8.58-4.21-12.83-6.41-5.58-2.88-11.08-5.84-16.58-8.8q-7.33-3.94-14.78-7.87l-4.08-2.1-.73-.37c-2.91-1.48-5.83-2.94-8.77-4.35-.25-.14-.5-.25-.75-.37-2.23-1.06-4.45-2.12-6.7-3.13-.86-.4-1.69-.79-2.55-1.16q-.37-.18-.75-.33a218.07,218.07,0,0,0-39.81-13.5,241,241,0,0,0-39.53-5.69l-.36,0c-2.19-.12-4.33-.19-6.44-.24s-3.95-.07-5.83-.06a180.31,180.31,0,0,0-28.09,2.21,147.43,147.43,0,0,0-37.55,10.9c-3.06,1.35-5.67,2.69-7.92,3.91a68.78,68.78,0,0,0-9.47,6V90.22a47.42,47.42,0,0,1,9.47-5.47c2.2-1,4.81-2.13,7.92-3.3,4-1.53,8.94-3.13,14.78-4.72a166.81,166.81,0,0,1,22.77-4.48,209.48,209.48,0,0,1,28.09-1.68c1.91,0,3.83.06,5.83.13s4.25.16,6.44.28l.36,0a279.34,279.34,0,0,1,43.5,6.2,210.17,210.17,0,0,1,30.36,9.25c2.23.84,4.42,1.72,6.59,2.64l.16.07c1.17.48,2.34,1,3.48,1.48,1.44.6,2.86,1.24,4.27,1.89l.09,0c3.41,1.54,6.77,3.14,10.11,4.75,0,0,0,0,0,0l2.19,1.09c3.47,1.73,6.89,3.47,10.28,5.25,3.19,1.66,6.33,3.34,9.47,5,1.92,1,3.83,2,5.72,3.07,37.06,19.94,70.47,37.93,115.22,32.2,17.06-2.2,35.78-7.85,57-18.13l3.61-1.74c13.89-6.76,27.58-13.41,41.11-19.74q5.76-2.67,11.42-5.27l4.36-2c16.86-7.61,33.5-14.6,49.94-20.52q5.34-1.94,10.64-3.69C596.6,69.57,606.49,66.68,616.38,64.3Z"/></g></g><g class="cls-9"><rect class="cls-10" x="477.48" y="144.19" width="73.75" height="1.63"/><rect class="cls-10" x="184.36" y="144.19" width="72.47" height="1.63"/><rect class="cls-10" x="184.36" y="239.38" width="72.47" height="1.63"/><path class="cls-10" d="M85.56,191.89c0-12.54,10.45-22.75,23.29-22.75s23.3,10.21,23.3,22.75-10.45,22.74-23.3,22.74S85.56,204.43,85.56,191.89Zm42.5,0c0-10.29-8.61-18.67-19.21-18.67s-19.21,8.38-19.21,18.67,8.62,18.66,19.21,18.66S128.06,202.18,128.06,191.89Z"/><g id="Rechteck_13291" data-name="Rechteck 13291"><rect class="cls-10" x="129.81" y="191.17" width="54.31" height="1.43"/></g><g id="Rechteck_13319" data-name="Rechteck 13319"><rect class="cls-10" x="184.12" y="144.19" width="1.88" height="96.83"/></g><path class="cls-10" d="M252,264.16V217.64h79.21v46.52Zm5.1-41.42v36.31h69V222.74Z"/><path class="cls-10" d="M252,168.53v-47h79.21v47.05Zm5.1-41.95v36.85h69V126.58Z"/><rect class="cls-10" x="331.17" y="144.19" width="72.47" height="1.63"/><path class="cls-10" d="M398.77,168.53v-47H478v47.05Zm5.1-41.95v36.85h69V126.58Z"/><path class="cls-10" d="M551.23,145.82c0-12.84,10.2-23.29,22.75-23.29s22.74,10.45,22.74,23.29-10.2,23.29-22.74,23.29S551.23,158.67,551.23,145.82Zm41.41,0c0-10.59-8.37-19.21-18.66-19.21s-18.67,8.62-18.67,19.21S563.68,165,574,165,592.64,156.42,592.64,145.82Z"/><rect class="cls-10" x="477.48" y="238.28" width="73.75" height="1.63"/><rect class="cls-10" x="331.17" y="238.28" width="72.47" height="1.63"/><path class="cls-10" d="M398.77,262.62V215.57H478v47.05Zm5.1-42v36.85h69V220.67Z"/><path class="cls-10" d="M551.23,239.91c0-12.84,10.2-23.29,22.75-23.29s22.74,10.45,22.74,23.29S586.52,263.2,574,263.2,551.23,252.75,551.23,239.91Zm41.41,0c0-10.59-8.37-19.21-18.66-19.21s-18.67,8.62-18.67,19.21,8.37,19.21,18.67,19.21S592.64,250.5,592.64,239.91Z"/></g><g class="cls-11"><polygon class="cls-12" points="266.41 168.17 261.02 162.79 319.02 119.55 324.4 124.94 266.41 168.17"/><polygon class="cls-13" points="261.02 125.06 266.41 119.68 324.07 162.66 318.85 168.17 261.02 125.06"/></g><path class="cls-14" d="M367.44,148.87l-22.06-38.21a1.71,1.71,0,0,0-3,0l-22.06,38.21a1.71,1.71,0,0,0,1.48,2.56H366A1.71,1.71,0,0,0,367.44,148.87Zm-21.94-27.8L345,139.66h-2.64l-.54-18.59Zm-1.86,26.52a2.4,2.4,0,0,1,0-4.8,2.4,2.4,0,0,1,0,4.8Z"/><path class="cls-15" d="M290.54,204.71s7.08-13.69,5-20.14c-.43-1.32-4.86-8.69-4-10.3s5.11-12.43,6.7-11.92,1.36,1.52,1,2.28-2.63,8.68-2.4,9.41c0,0,3.47-7.69,5.58-7.56s2.49,1.85,3.23,2.66,2.65,1.86,2.65,3.91-4.2,11.73-4.51,13.76-1,18.57-1.35,18.8S290.54,204.71,290.54,204.71Z"/><path class="cls-16" d="M226.37,251.93c3.26-13.18-14.8-22.56-14.8-22.56-10.66,12.76-8.74,34.75-8.88,38.8-.16,4.36,15.81,32.78,19,36.19l10.19-5.46s-12.72-21.62-14.16-25.16C216.41,270.38,226.37,251.93,226.37,251.93Z"/><path class="cls-17" d="M293.47,192.71l0-1.94s11.2.81,12,.7l-.73,4.49-9.87-.52Z"/><path class="cls-18" d="M247,216.61s3.09-5.41-1.81-19.91c-4.74-14-21.16-12.76-26.37-3.77s-3.46,14.56,4.22,24.71S243.8,221.25,247,216.61Z"/><path class="cls-19" d="M208.86,466.12s-.81,5.95-.91,6.85-9-.53-9-.53l-.72-7.09S207.74,465.28,208.86,466.12Z"/><path class="cls-20" d="M208,472.21a24.53,24.53,0,0,0,5.57,5.15c2.74,1.56,7,2.18,8.66,3.8,1.17,1.17,4.26,6.2-7.11,6.1s-16.86.71-18.08-1.21,1.77-14.25,1.77-14.25S201.63,472.59,208,472.21Z"/><path class="cls-19" d="M270.73,466.12s-.81,5.95-.91,6.85-9-.53-9-.53l-.72-7.09S269.61,465.28,270.73,466.12Z"/><path class="cls-20" d="M269.91,472.21a24.53,24.53,0,0,0,5.57,5.15c2.74,1.56,12.81,2.85,14.44,4.47,1.16,1.17,3.11,5.87-12.89,5.43-11.37-.31-16.86.71-18.08-1.21s1.77-14.25,1.77-14.25A47.24,47.24,0,0,0,269.91,472.21Z"/><path class="cls-21" d="M211.87,317.82s-4.58,14.24-4,26.51-2.37,25.69-3.58,38.5c-1.36,14.3-6.9,48.12-7.1,55.77s-1.59,32-1.59,32L211,471s7.51-59.18,9.92-65.22,14.38-49.05,14.78-53.88S211.87,317.82,211.87,317.82Z"/><path class="cls-22" d="M257.88,316.34s6.73,37.64,7.54,45.15,1.34,36.34,1.74,41,2.68,61.42,4.83,68.39l-14.58,0s-9.36-41.39-11.59-60.78-7.32-42.43-12.75-55.3-17.86-13.18-21.2-37.06C211.87,317.82,253.36,308.76,257.88,316.34Z"/><path class="cls-18" d="M242.51,220.44s-1.4,4.06,0,7-17.84,1.16-17.84,1.16.87-6-1.64-10.92S242.51,220.44,242.51,220.44Z"/><path class="cls-23" d="M211,320.92s6.91,7.1,47.52-1.1l-.62-3.48-46.16,1.73Z"/><path class="cls-18" d="M245.42,228.34s7.1.72,9.13,1.11S270.23,227,273,226.72s14.75-8.48,15.13-9.45,6.75-18.48,7.66-22.16c.34-1.39,6.7-1.82,6.16.78-1,4.86-2.31,16.65-3,20.06-.77,3.7-2.83,12.05-4,13.08s-11.92,9.21-22.45,12.69a89.71,89.71,0,0,0-18.46,8.6S220,229.16,223.53,229a24.54,24.54,0,0,0,7.25-1.69Z"/><path class="cls-24" d="M267.78,247.62s-6.35,4.22-6.93,11.47a150.14,150.14,0,0,1-4.06,22.6c-1.16,3.92,5.6,46.55,5.89,48.58s-50.4.4-56.61-4.43c0,0,3.91-34.29,3.18-41.82s-4.2-25.8-5.36-28.27c-1-2.15,6.82-26.52,7.68-26.38,2.7.44,19.27-2.59,19.27-2.62s1.81,2.46,11.42-.44c0,0,11.44,1.3,13.3,1.53,1.19.16,23.38.09,31.16-11.84,1.59-2.44,7-23,7-23l11.85,1s-3.5,24.88-4.65,32.42a4.31,4.31,0,0,1-2.08,3.08Z"/><path class="cls-25" d="M223,217.64s2.54.23,8-1.65,5.81-11.32,7-10.2c2.39,2.28,2.9-4.13,4.13-5.8a29.86,29.86,0,0,1,3.56-3.47,4.9,4.9,0,0,0,.17-7.24c-3.77-3.59-10.83-7.39-21.64-2.18C203.9,196.9,223,217.64,223,217.64Z"/><path class="cls-17" d="M242.51,226.6l-.62-1.85s-10.79,1.62-17.08.65l-.37,2.48S231.9,231.27,242.51,226.6Z"/><path class="cls-18" d="M239.78,203.47c-1-1.67-4.72-2.8-5.16,1.93-.33,3.66,6.64,7.66,6.7,4.25A10.26,10.26,0,0,0,239.78,203.47Z"/><path class="cls-18" d="M602.69,174.62s-2.8-7.29-4-8.11-3.07-1.48-4.52-2.95-3.46-2.82-3.28-3.19,2.11.12,4,1.38,2.92,1,3.2.54-.46-4-1-4.89-4.21-6.18-3.34-6.72,3.35,2.44,3.73,3c0,0-1.48-5.28-.54-5.36s2.34,2,2.34,2,.52-4.21,3.85,3.33c0,0-.56-2.41.68-1.42s1.87,5.42,1.94,7.63.86,9.3,2.26,11.22S602.69,174.62,602.69,174.62Z"/><path class="cls-18" d="M598.65,166.51c-1.23-.82-3.07-1.48-4.52-2.95s-3.46-2.82-3.28-3.19,2.11.12,4,1.38,2.92,1,3.2.54-.46-4-1-4.89S599.89,167.33,598.65,166.51Z"/><path class="cls-18" d="M641.82,206.81c12.11,6.14,7.68,26.38,7.68,26.38-4.45-.7-32.29-16.5-35.45-19-3.4-2.73-11.59-33.93-12.07-38.6s4.08-4.11,4.08-4.11,11.87,24.25,13.61,27.66C621.33,202.32,641.82,206.81,641.82,206.81Z"/><path class="cls-17" d="M610,172.37l-.52-1.87s-10.52,3.94-11.28,4l2,4.1,9.32-3.27Z"/><path class="cls-26" d="M641.82,206.81c12.11,6.14,7.68,26.38,7.68,26.38-4.45-.7-32.29-16.5-35.45-19-3.4-2.73-14.51-33.37-15-38L609.85,172s8.08,23.74,9.82,27.15C621.33,202.32,641.82,206.81,641.82,206.81Z"/><path class="cls-18" d="M557.08,173.69s-1.16-6.77.62-8.63c1-1.06,3.46-3.88,3.69-4.3s2.79-1.76,2.81-2.46-2.39-1.64-4.6.26-3.56,2.27-4.4,2-1.81-7.39-1.85-9.15-.54-6.43-1.65-6.16-1.14,2.31-1.14,2.31-1.15-3.57-2-2.91-.84,2.38-.84,2.38-1.53-2-2-.62a5.07,5.07,0,0,0-.11,2.73s-1.61-1-1.8,1.26.14,8.82,1.23,11.22,5.24,8.7,5.68,11.11S557.08,173.69,557.08,173.69Z"/><path class="cls-17" d="M559.92,170.15l0-2s-11.19.82-12,.7l.73,4.49,9.87-.51Z"/><path class="cls-18" d="M606.4,194s-3.1-5.41,1.81-19.91c4.74-14,21.16-12.75,26.37-3.77s3.46,14.57-4.22,24.71S609.58,198.68,606.4,194Z"/><path class="cls-19" d="M644.53,443.55s.81,6,.91,6.85,9-.53,9-.53l.72-7.09S645.65,442.71,644.53,443.55Z"/><path class="cls-20" d="M645.35,449.64a24.71,24.71,0,0,1-5.57,5.16c-2.74,1.56-7,2.18-8.66,3.8-1.17,1.17-4.26,6.2,7.11,6.1s16.86.71,18.08-1.22-1.77-14.24-1.77-14.24S651.76,450,645.35,449.64Z"/><path class="cls-19" d="M582.66,443.55s.81,6,.91,6.85,9-.53,9-.53l.72-7.09S583.78,442.71,582.66,443.55Z"/><path class="cls-20" d="M583.48,449.64a25,25,0,0,1-5.57,5.16c-2.74,1.56-12.82,2.84-14.44,4.46-1.17,1.18-3.11,5.88,12.89,5.44,11.37-.31,16.86.71,18.08-1.22s-1.77-14.24-1.77-14.24A46.85,46.85,0,0,1,583.48,449.64Z"/><path class="cls-27" d="M641.52,295.26s4.58,14.23,4,26.5,2.37,25.7,3.58,38.51c1.36,14.29,6.9,48.12,7.1,55.76s1.59,32,1.59,32l-15.36.37s-7.51-59.18-9.92-65.21-14.38-49.05-14.79-53.88S641.52,295.26,641.52,295.26Z"/><path class="cls-28" d="M595.51,293.77s-6.73,37.64-7.54,45.16-1.34,36.34-1.74,41-2.68,61.41-4.83,68.39l14.58,0s9.36-41.39,11.59-60.77,7.32-42.44,12.75-55.31,17.86-13.17,21.2-37.05C641.52,295.26,600,286.2,595.51,293.77Z"/><path class="cls-18" d="M610.88,197.87s1.4,4.06,0,7S628.72,206,628.72,206s-.87-6,1.64-10.92S610.88,197.87,610.88,197.87Z"/><path class="cls-23" d="M642.41,298.35s-6.91,7.11-47.52-1.1l.62-3.48,46.16,1.74Z"/><path class="cls-18" d="M608,205.78s-7.1.72-9.13,1.1-15.68-2.44-18.49-2.73-14.75-8.47-15.13-9.44-6.75-18.48-7.66-22.16c-.34-1.4-6.7-1.82-6.16.77,1,4.86,2.31,16.65,3,20.07.77,3.69,2.83,12.05,4,13.08s11.92,9.21,22.45,12.69a89.1,89.1,0,0,1,18.46,8.6s34.06-21.16,30.53-21.31a24.9,24.9,0,0,1-7.25-1.69Z"/><path class="cls-29" d="M585.61,225.05s6.35,4.22,6.93,11.47a150.31,150.31,0,0,0,4.06,22.61c1.16,3.91-5.61,46.55-5.9,48.58s50.41.39,56.62-4.43c0,0-3.91-34.29-3.19-41.83s4.21-25.79,5.37-28.26c1-2.15-6.82-26.52-7.68-26.38-2.71.44-19.27-2.6-19.27-2.63s-1.81,2.47-11.42-.43c0,0-11.44,1.29-13.3,1.53-1.19.15-23.38.09-31.16-11.85-1.59-2.44-7-23-7-23l-11.85,1s3.5,24.89,4.64,32.43a4.31,4.31,0,0,0,2.09,3.07Z"/><path class="cls-25" d="M630.36,195.07s-2.55.23-8-1.64-5.81-11.33-7-10.21c-2.39,2.29-2.9-4.12-4.13-5.8a31.51,31.51,0,0,0-3.56-3.47c-2.17-1.9-3.65-8.19.52-13.3,3.29-4,11.5-2.28,22.31,2.94C650.85,173.38,630.36,195.07,630.36,195.07Z"/><path class="cls-17" d="M610.88,204l.61-1.86s10.8,1.63,17.09.65l.37,2.48S621.49,208.71,610.88,204Z"/><path class="cls-18" d="M613.61,180.9c1-1.67,4.72-2.79,5.15,1.93.34,3.67-6.63,7.67-6.7,4.25A10.32,10.32,0,0,1,613.61,180.9Z"/><ellipse class="cls-30" cx="242.51" cy="487.35" rx="69.74" ry="9.24"/><ellipse class="cls-30" cx="72.34" cy="488.74" rx="72.34" ry="11.79"/><path class="cls-25" d="M90.12,191.21S92.71,201.7,91.79,205c0,0-4-6.7-5.5-9.55Z"/><path class="cls-15" d="M89.69,247.11l-39.19,2.6A8.66,8.66,0,0,1,52,245.39C54.7,242.23,67.42,232,67.42,232c3.31-8,.87-24,.87-24s14.6,5.21,14.84,7c1,7.07,1.6,14.11,2.91,16.44a5.6,5.6,0,0,0,2.6,1.38Z"/><path class="cls-15" d="M89.61,196.86A70.86,70.86,0,0,1,92.69,213c.43,8.84-2.85,12.31-5.82,13.49,0,0-.68.62-3.57.77-3.56.18-10.86-3.62-14-10,0,0-1.78,1-3.52-2s-1.87-7.93,2.1-5.7c0,0-4.08-13.47,1.86-15.65S86.91,187.07,89.61,196.86Z"/><path class="cls-31" d="M138.14,194.06c-.35.27-2.51,1.27-2.51,1.27.77,3,4.28,31.73,1.1,44a10.88,10.88,0,0,1-8.48-9.85c-.63-7.7-.86-30.56-.31-34.07-.9-.44-1.74-3.34-2.47-7.81-.15-.9,1.18-3,1.18-3s10.15-2.34,10.47-2.22C139.15,183.07,138.14,194.06,138.14,194.06Z"/><path class="cls-32" d="M90.62,232.59c36.5,6,38.44,13.12,36.39-29.33-.05-1.13,10.9-4.88,10.9-4.88.46,3.52,3.59,34.23,2.76,41.91,1.73,18.23-46.87,14.34-50.41,16.22Z"/><path class="cls-33" d="M51.32,461.24s-2.65,10.57-1.75,14.85a31.9,31.9,0,0,1,.11,9.55s-20.79,11.3-22.2,10.26c-2-1.49,2-5.54,3.33-7.45s8.53-11.24,9.09-14.16S41,462,41,462Z"/><path class="cls-10" d="M51.34,461.31s-2.5,9.88-1.91,14c0,0-10.08,2-9.52-.95s1.14-12.25,1.14-12.25Z"/><path class="cls-33" d="M94.21,459.59s2.66,10.57,1.76,14.84a31.77,31.77,0,0,0-.12,9.56s20.8,11.29,22.21,10.25c2-1.49-2-5.53-3.33-7.44s-8.53-11.25-9.09-14.17-1.14-12.26-1.14-12.26Z"/><path class="cls-10" d="M94.2,459.65s2.49,9.88,1.9,14c0,0,10.08,2,9.52-.94s-1.13-12.26-1.13-12.26Z"/><path class="cls-34" d="M56.2,308.45l12.39-1.57-1.17-7.5,32.75.82,6.29,170.62s-3.15,4.12-12.33-.75L78.05,367.31,51.74,471.46a17.17,17.17,0,0,1-13.52-1.58Z"/><path class="cls-10" d="M91.51,233.23,86.82,232c-1.59,2.72-2.93,5.31-4.13,5.57S67.42,232,67.42,232s-19.62,7.43-22.08,8.77l2,13.73L56.59,327c26.09,8.31,45.24-1.62,45.24-1.62s6-74.16-.27-84.66C98,234.68,95.25,234.36,91.51,233.23Z"/><path class="cls-31" d="M131.11,185.12c-1.19-3.7-2-7.8-2.24-8.06s-2.34-2.49-2.19-1-.15,8.69-.15,8.69Z"/><path class="cls-35" d="M88.55,255.8s5.78,39.32,6.83,51.23l-.53,20.91c4.15-1.22,8.79-2.93,8.79-2.93s4.14-74.22-2.11-84.71c-3.59-6-6.3-6.35-10-7.49l-2.34-.59C86.81,238,86.94,250.48,88.55,255.8Z"/><path class="cls-36" d="M75.08,254.5s-4,40.32-3.11,52.26l-3.61,22.91c-3.08-.25-16.31.1-15.84-3.05,2.72-18.55-7.87-62.3-7.12-86,0-.73,14.31-5.91,18.31-7.76l3.71-.83C71,237.25,76,249,75.08,254.5Z"/><polygon class="cls-37" points="82.69 237.61 91.28 242.11 89.1 232.62 86.03 231.49 82.69 237.61"/><path class="cls-37" d="M81.4,237.39,68.67,244,67.42,232S73.73,234.61,81.4,237.39Z"/><path class="cls-25" d="M68.06,229.09s1.57-4.29-2.85-12.32C59.86,207.05,53.9,203.6,59.62,201c0,0-2.19-3.74.54-6.66,0,0-.71-7.63,11.4-8.92a77.44,77.44,0,0,0,9.7-1.56c4-1,7.52-.06,10.18,3.08.13.17,5,4.51-1.94,7.88l-12,24.27Z"/><path class="cls-15" d="M80.78,216.31c5.76-5.6,12.28-15.26,7.46-22.48-.19-.29-6.76,1.81-6.76,1.81C74.23,200,70.64,199,70.64,199A15.38,15.38,0,0,1,72,202.64a17.32,17.32,0,0,1-1.39,11.06c-1.67-4.48-6.56-6.32-6.33-2.69s5.25,5.66,5.25,5.66C75.48,230.05,79,218,80.78,216.31Z"/><path class="cls-15" d="M69.51,216.67s-.85,11.37-1.15,12.09,9.11-.5,9.11-.5,2.28-9.06,1.84-9.19S69.51,216.67,69.51,216.67Z"/><path class="cls-15" d="M139.18,193.77c-2,.75-4.62.44-7,.35s-.48-2.7-.48-2.7c-2.23.45-2.35-.43-2.33-1.09,0-.88,2.28-1.81,2.28-1.81a25.88,25.88,0,0,1-3,.76c-.93.12-1.18-1.21-.11-2.22S135,184.5,135,184.5l-3.9.31c-2.93.23-3.89-.44-2.64-1.66.87-.84,3.16-1.2,7.93-1,3.59.15,3.45.49,3.45.49S141.1,193,139.18,193.77Z"/><path class="cls-15" d="M60.81,312.88l-4.66.42-6.88-1.88c4.59-.62,7.78-1.15,7.78-1.15s6.12.68,7.7,2S63.38,314.08,60.81,312.88Z"/><path class="cls-38" d="M75.11,311.37c-3.91,2-12.33,2.92-12.86,3.86l-.16.27c-.53.94,3,8.64,3.27,13,.3,4.54-3.23,9.18-5,10L51.1,333.3l-9.21-5.23c-.21-2,2-7.39,6-9.46,3.91-2,12.33-2.92,12.86-3.86l.16-.27c.53-.94-3-8.64-3.27-13-.3-4.54,3.23-9.18,5-10l9.2,5.24,9.21,5.24C81.35,303.9,79.17,309.31,75.11,311.37Z"/><path class="cls-39" d="M59.88,295.34c-1.19,2,2.69,17.1,2.35,17.7l-9.76,17.3c-.34.6-3.62.46-4.2.57a52.07,52.07,0,0,0,6.34,3.6c.18-.32-2.14-3.38-1.8-4l9.91-17.21c.34-.6,15.37-4.91,16.51-7a4.89,4.89,0,0,0,1-2.93L62.3,293.25A4.45,4.45,0,0,0,59.88,295.34Z"/><path class="cls-40" d="M61.52,340.09,40,327.82a2.09,2.09,0,0,0-2.83.78h0a2.08,2.08,0,0,0,.78,2.82l21.57,12.27a2.07,2.07,0,0,0,2.82-.78h0A2.06,2.06,0,0,0,61.52,340.09Z"/><path class="cls-41" d="M50.73,334,40,327.84s.66-1.16,1.54-.66l9.86,5.61,9.87,5.61c.88.5.22,1.66.22,1.66Z"/><rect class="cls-40" x="58.84" y="292.16" width="28.95" height="4.14" rx="1.81" transform="translate(-8.36 586.25) rotate(-150.38)"/><path class="cls-41" d="M72.3,296,83,302.14s-.66,1.16-1.54.66l-9.87-5.61-9.86-5.61c-.88-.5-.22-1.66-.22-1.66Z"/><path class="cls-15" d="M60.88,314.25l3.82,3.2s5,1.71,4.16,3.51c-.33.74-5.62-1.21-5.62-1.21L60.8,318.7l3.66,2s6.23,1.12,5.4,3.18c-.34.87-7-1-7-1l-3.07-1.34,3.55,2.05s4.19.89,4,1.68c-.45,1.56-6.09.25-6.09.25l-3-1.8L60.43,326s1.43,1,1.39,1.49c-.07.9-1.76.48-3.28-.35-.95-.52-5.53-6.37-8.67-9.38-1.83-1.75-3.09-1.44-3.09-1.44L48,310.52a29,29,0,0,0,10.61,0Z"/><path class="cls-42" d="M10.52,294.66c5.74-12.88,30-53.09,36.52-55l4.64,24.72a7.89,7.89,0,0,1-1.59,6.35c-5.54,7-17,23.84-19.32,25.47,15.91,9.61,22.86,13.47,22.86,13.47l-4.23,8.87C47,319-.09,306.72,10.52,294.66Z"/><ellipse class="cls-43" cx="434.63" cy="454.12" rx="106.57" ry="10.61"/><path class="cls-10" d="M408.49,335.1c5.94.06,20.32,5.84,32,12.89S457,360.73,451,360.67s-20.33-5.84-32.05-12.89S402.54,335,408.49,335.1Zm38.79,23.33c4.88.05,1-4.65-8.68-10.46s-21.51-10.59-26.39-10.63-1,4.64,8.68,10.46S442.39,358.38,447.28,358.43Z"/><path class="cls-10" d="M406,335.93l-2.73,5.27a1.28,1.28,0,0,0,.16,1.17c1.52,3,24.77,19.61,46.48,23.09a.83.83,0,0,0,.85-.43l2.69-5.2h-6.83l-14.51-5.92S407,342.64,406,335.93Z"/><path class="cls-10" d="M340.66,350.14l20.12-10.73,84.37,7.51L425,357.65ZM364,341.07l-15.7,8.38L421.8,356l15.71-8.38Z"/><rect class="cls-10" x="340.02" y="353.87" width="84.7" height="10.59" transform="translate(33.31 -32.45) rotate(5.08)"/><polygon class="cls-10" points="444.21 357.47 424.09 368.2 425.02 357.64 445.15 346.92 444.21 357.47"/><path class="cls-10" d="M440.46,369.64l15.25-17,81.86-21.75-15.25,16.95Zm18.85-16.5-11.9,13.24,71.31-19,11.91-13.23Z"/><rect class="cls-10" x="440.4" y="358.58" width="84.7" height="10.59" transform="translate(-77.27 136.21) rotate(-14.88)"/><polygon class="cls-10" points="540.29 341.17 525.04 358.12 522.32 347.88 537.57 330.93 540.29 341.17"/><path class="cls-10" d="M444.9,354.69c4.32-5.15,19.67-13.56,34.23-18.75s22.9-5.2,18.58-.05S478,349.46,463.48,354.64,440.59,359.85,444.9,354.69Zm48.19-17.15c3.54-4.23-3.35-4.19-15.36.08s-24.66,11.2-28.2,15.43,3.35,4.19,15.36-.09S489.55,341.77,493.09,337.54Z"/><path class="cls-10" d="M443.86,357.44l2.65,6.17c.19.45.65.59,1.14.69,3.71.83,34.88-7.57,53.48-24a.92.92,0,0,0,.23-1.05l-2.61-6.08-4.89,6-15.57,8.42S450.44,361.38,443.86,357.44Z"/><rect class="cls-44" x="405.08" y="358.27" width="120.13" height="99.16"/><polygon class="cls-45" points="344.74 357.4 405.08 358.27 405.08 457.42 344.74 456.06 344.74 357.4"/><polygon class="cls-46" points="405.08 358.27 378.81 384.54 317.44 384.54 344.74 357.4 405.08 358.27"/><polygon class="cls-47" points="405.08 358.27 429.1 383.92 548.75 383.92 527.2 358.27 405.08 358.27"/><path class="cls-10" d="M513.07,403.87H486.74a3.47,3.47,0,0,0-3.47,3.47v4.6h-8.94l-8-8-8,8h-8.95v-4.6a3.47,3.47,0,0,0-3.47-3.47H419.51a3.47,3.47,0,0,0-3.48,3.47v10.23a3.48,3.48,0,0,0,3.48,3.48h26.33a3.48,3.48,0,0,0,3.47-3.48V413h8.95l8,8,8-8h8.94v4.6a3.47,3.47,0,0,0,3.47,3.48h26.33a3.48,3.48,0,0,0,3.48-3.48V407.34A3.47,3.47,0,0,0,513.07,403.87Zm-64.79,13.7a2.45,2.45,0,0,1-2.44,2.45H419.51a2.45,2.45,0,0,1-2.45-2.45V407.34a2.45,2.45,0,0,1,2.45-2.44h26.33a2.44,2.44,0,0,1,2.44,2.44Zm18,2L459.71,413l-.51-.51.51-.52,6.58-6.58,6.57,6.58.52.52-.52.51Zm49.23-2a2.45,2.45,0,0,1-2.45,2.45H486.74a2.44,2.44,0,0,1-2.44-2.45V407.34a2.44,2.44,0,0,1,2.44-2.44h26.33a2.45,2.45,0,0,1,2.45,2.44Z"/><path class="cls-10" d="M466.29,421.78,458,413.52h-8.17v4.05a4,4,0,0,1-4,4H419.51a4,4,0,0,1-4-4V407.34a4,4,0,0,1,4-4h26.33a4,4,0,0,1,4,4v4.05H458l8.26-8.26,8.26,8.26h8.17v-4.05a4,4,0,0,1,4-4h26.33a4,4,0,0,1,4,4v10.23a4,4,0,0,1-4,4H486.74a4,4,0,0,1-4-4v-4.05h-8.17Zm20.45-16.33a1.89,1.89,0,0,0-1.89,1.89v10.23a1.9,1.9,0,0,0,1.89,1.9h26.33a1.9,1.9,0,0,0,1.9-1.9V407.34a1.9,1.9,0,0,0-1.9-1.89Zm-67.23,0a1.9,1.9,0,0,0-1.9,1.89v10.23a1.9,1.9,0,0,0,1.9,1.9h26.33a1.91,1.91,0,0,0,1.9-1.9V407.34a1.9,1.9,0,0,0-1.9-1.89Zm40.46,7,6.32,6.31,6.31-6.31-6.31-6.32Z"/></svg>