<svg id="Ebene_1" data-name="Ebene 1" xmlns="http://www.w3.org/2000/svg" xmlns:xlink="http://www.w3.org/1999/xlink" viewBox="0 0 596 447"><defs><style>.cls-1{fill:none;}.cls-2{fill:url(#Unbenannter_Verlauf_2);}.cls-3{fill:#eea886;}.cls-4{fill:#4f4f4f;opacity:0.1;}.cls-5{fill:#58595b;}.cls-6{fill:#0c173d;}.cls-7{fill:#103257;}.cls-8{fill:url(#Unbenannter_Verlauf_53);}.cls-9{fill:url(#Unbenannter_Verlauf_53-2);}.cls-10{fill:url(#Unbenannter_Verlauf_53-3);}.cls-11{fill:url(#Unbenannter_Verlauf_53-4);}.cls-12{fill:url(#Unbenannter_Verlauf_53-5);}.cls-13,.cls-17,.cls-23,.cls-74{fill:#fff;}.cls-14,.cls-16{opacity:0.63;}.cls-14{fill:url(#Unbenannter_Verlauf_28);}.cls-15{opacity:0.51;}.cls-16{fill:url(#Unbenannter_Verlauf_36);}.cls-17{opacity:0.65;}.cls-18{opacity:0.74;}.cls-19{opacity:0.43;}.cls-20{fill:url(#linear-gradient);}.cls-21{opacity:0.22;}.cls-22{fill:url(#linear-gradient-2);}.cls-23,.cls-24{opacity:0.62;}.cls-25{clip-path:url(#clip-path);}.cls-26{fill:#ffb68e;}.cls-27{fill:url(#Unbenannter_Verlauf_4);}.cls-28{fill:url(#Unbenannter_Verlauf_4-2);}.cls-29{fill:url(#Unbenannter_Verlauf_4-3);}.cls-30{fill:url(#Unbenannter_Verlauf_4-4);}.cls-31{fill:url(#Unbenannter_Verlauf_4-5);}.cls-32{fill:url(#Unbenannter_Verlauf_38);}.cls-33{fill:url(#Unbenannter_Verlauf_38-2);}.cls-34{fill:url(#Unbenannter_Verlauf_38-3);}.cls-35{fill:url(#Unbenannter_Verlauf_38-4);}.cls-36{fill:url(#Unbenannter_Verlauf_38-5);}.cls-37{fill:url(#Unbenannter_Verlauf_4-6);}.cls-38{fill:url(#Unbenannter_Verlauf_4-7);}.cls-39{clip-path:url(#clip-path-2);}.cls-40{fill:#f2f2f2;}.cls-41{fill:url(#New_Gradient_Swatch_copy_10);}.cls-42{fill:url(#Unbenannter_Verlauf_14);}.cls-43{fill:url(#Unbenannter_Verlauf_14-2);}.cls-44{fill:#d1d1d1;}.cls-45{fill:#decbc4;}.cls-46{fill:url(#Unbenannter_Verlauf_14-3);}.cls-47{fill:#000538;}.cls-48{fill:#333;}.cls-49{clip-path:url(#clip-path-3);}.cls-50{fill:#ffaa80;}.cls-51{fill:url(#Unbenannter_Verlauf_38-6);}.cls-52{fill:url(#Unbenannter_Verlauf_4-8);}.cls-53{fill:url(#Unbenannter_Verlauf_38-7);}.cls-54{fill:url(#Unbenannter_Verlauf_4-9);}.cls-55{fill:url(#Unbenannter_Verlauf_4-10);}.cls-56{fill:url(#Unbenannter_Verlauf_4-11);}.cls-57{fill:url(#Unbenannter_Verlauf_3);}.cls-58{fill:#5b5b5b;}.cls-59{opacity:0.75;}.cls-60{fill:#dbdff0;}.cls-61{fill:#79c0fb;}.cls-62{fill:#152b3d;}.cls-63{fill:url(#Unbenannter_Verlauf_14-4);}.cls-64{fill:url(#Unbenannter_Verlauf_14-5);}.cls-65{fill:#323657;}.cls-66{fill:url(#Unbenannter_Verlauf_14-6);}.cls-67{fill:url(#Unbenannter_Verlauf_53-6);}.cls-68{fill:url(#Unbenannter_Verlauf_4-12);}.cls-69{fill:url(#Unbenannter_Verlauf_53-7);}.cls-70{fill:url(#Unbenannter_Verlauf_53-8);}.cls-71{fill:url(#Unbenannter_Verlauf_53-9);}.cls-72{fill:url(#Unbenannter_Verlauf_53-10);}.cls-73{fill:url(#Unbenannter_Verlauf_53-11);}.cls-74{opacity:0.72;}.cls-75{clip-path:url(#clip-path-4);}.cls-76{fill:url(#Unbenannter_Verlauf_4-13);}.cls-77{fill:url(#Unbenannter_Verlauf_10);}.cls-78{fill:url(#Unbenannter_Verlauf_38-8);}.cls-79{fill:url(#Unbenannter_Verlauf_4-14);}</style><linearGradient id="Unbenannter_Verlauf_2" x1="465.14" y1="109.05" x2="-104.73" y2="537.98" gradientUnits="userSpaceOnUse"><stop offset="0.15" stop-color="#fff"/><stop offset="1" stop-color="#79c0fb"/></linearGradient><linearGradient id="Unbenannter_Verlauf_53" x1="254.72" y1="211.62" x2="317.65" y2="316.5" gradientUnits="userSpaceOnUse"><stop offset="0" stop-color="#04808a"/><stop offset="0.97" stop-color="#103257"/></linearGradient><linearGradient id="Unbenannter_Verlauf_53-2" x1="252.92" y1="212.7" x2="315.85" y2="317.58" xlink:href="#Unbenannter_Verlauf_53"/><linearGradient id="Unbenannter_Verlauf_53-3" x1="247.93" y1="215.7" x2="310.86" y2="320.58" xlink:href="#Unbenannter_Verlauf_53"/><linearGradient id="Unbenannter_Verlauf_53-4" x1="276.38" y1="198.63" x2="339.31" y2="303.51" xlink:href="#Unbenannter_Verlauf_53"/><linearGradient id="Unbenannter_Verlauf_53-5" x1="273.46" y1="200.38" x2="336.39" y2="305.26" xlink:href="#Unbenannter_Verlauf_53"/><linearGradient id="Unbenannter_Verlauf_28" x1="277.76" y1="95.6" x2="285.4" y2="275.67" gradientUnits="userSpaceOnUse"><stop offset="0" stop-color="#fff" stop-opacity="0.1"/><stop offset="0.62" stop-color="#79c0fb" stop-opacity="0.7"/><stop offset="0.93" stop-color="#f5faff" stop-opacity="0.15"/></linearGradient><linearGradient id="Unbenannter_Verlauf_36" x1="277.89" y1="1.54" x2="280.96" y2="146.31" gradientTransform="translate(169.79 390.6) rotate(-90)" gradientUnits="userSpaceOnUse"><stop offset="0" stop-color="#0480ef"/><stop offset="0.97" stop-color="#79c0fb"/></linearGradient><linearGradient id="linear-gradient" x1="37.39" y1="410.39" x2="398.68" y2="410.39" gradientTransform="translate(62.16 -311.07)" gradientUnits="userSpaceOnUse"><stop offset="0" stop-color="#ffc05c"/><stop offset="1" stop-color="#ff3857"/></linearGradient><linearGradient id="linear-gradient-2" x1="37.39" y1="409.3" x2="398.68" y2="409.3" gradientTransform="translate(62.16 -311.07)" gradientUnits="userSpaceOnUse"><stop offset="0" stop-color="#40d5e6"/><stop offset="1" stop-color="#57f"/></linearGradient><clipPath id="clip-path"><rect class="cls-1" x="432.23" y="140.92" width="61.48" height="61.48" rx="13.88"/></clipPath><linearGradient id="Unbenannter_Verlauf_4" x1="-344.71" y1="187.2" x2="-256.39" y2="255.56" gradientTransform="matrix(-1, 0, 0, 1, 174.04, 0)" gradientUnits="userSpaceOnUse"><stop offset="0" stop-color="#0c173d"/><stop offset="0.97" stop-color="#103257"/></linearGradient><linearGradient id="Unbenannter_Verlauf_4-2" x1="-756.98" y1="85.3" x2="-668.66" y2="153.66" gradientTransform="matrix(-0.97, -0.24, -0.24, 0.97, -184.17, -53.23)" xlink:href="#Unbenannter_Verlauf_4"/><linearGradient id="Unbenannter_Verlauf_4-3" x1="1706.28" y1="-1940.85" x2="1794.59" y2="-1872.49" gradientTransform="translate(-1396.99 -1624.54) rotate(91.86)" xlink:href="#Unbenannter_Verlauf_4"/><linearGradient id="Unbenannter_Verlauf_4-4" x1="-265.23" y1="362.18" x2="-250.5" y2="362.18" xlink:href="#Unbenannter_Verlauf_4"/><linearGradient id="Unbenannter_Verlauf_4-5" x1="-322.17" y1="359.28" x2="-293.93" y2="359.28" xlink:href="#Unbenannter_Verlauf_4"/><linearGradient id="Unbenannter_Verlauf_38" x1="-314.96" y1="268.39" x2="-290.18" y2="268.39" gradientTransform="matrix(-1, 0, 0, 1, 174.04, 0)" gradientUnits="userSpaceOnUse"><stop offset="0" stop-color="#015dac"/><stop offset="0" stop-color="#16477c"/><stop offset="0.1" stop-color="#134a82"/><stop offset="0.68" stop-color="#0658a1"/><stop offset="1" stop-color="#015dac"/></linearGradient><linearGradient id="Unbenannter_Verlauf_38-2" x1="-324.82" y1="209.47" x2="-245.98" y2="289.8" xlink:href="#Unbenannter_Verlauf_38"/><linearGradient id="Unbenannter_Verlauf_38-3" x1="-331.14" y1="215.67" x2="-252.3" y2="296" xlink:href="#Unbenannter_Verlauf_38"/><linearGradient id="Unbenannter_Verlauf_38-4" x1="-355.63" y1="239.7" x2="-276.79" y2="320.04" xlink:href="#Unbenannter_Verlauf_38"/><linearGradient id="Unbenannter_Verlauf_38-5" x1="-314.96" y1="330.34" x2="-294.44" y2="330.34" xlink:href="#Unbenannter_Verlauf_38"/><linearGradient id="Unbenannter_Verlauf_4-6" x1="-344.67" y1="178.99" x2="-239.67" y2="260.26" xlink:href="#Unbenannter_Verlauf_4"/><linearGradient id="Unbenannter_Verlauf_4-7" x1="1546.51" y1="-2443.87" x2="1623.19" y2="-2384.52" gradientTransform="translate(-1303.78 -2077.76) rotate(109.16)" xlink:href="#Unbenannter_Verlauf_4"/><clipPath id="clip-path-2"><rect class="cls-1" x="286.8" y="21.28" width="61.48" height="61.48" rx="13.88"/></clipPath><linearGradient id="New_Gradient_Swatch_copy_10" x1="273.53" y1="116.84" x2="351" y2="281.22" gradientUnits="userSpaceOnUse"><stop offset="0" stop-color="#0d2447"/><stop offset="1" stop-color="#123364"/></linearGradient><linearGradient id="Unbenannter_Verlauf_14" x1="223.28" y1="58.63" x2="370.19" y2="174.36" gradientUnits="userSpaceOnUse"><stop offset="0" stop-color="#0c173d"/><stop offset="0.97" stop-color="#16477c"/></linearGradient><linearGradient id="Unbenannter_Verlauf_14-2" x1="238.22" y1="39.67" x2="385.13" y2="155.4" xlink:href="#Unbenannter_Verlauf_14"/><linearGradient id="Unbenannter_Verlauf_14-3" x1="211" y1="74.22" x2="357.91" y2="189.96" xlink:href="#Unbenannter_Verlauf_14"/><clipPath id="clip-path-3"><rect class="cls-1" x="34.5" y="104.54" width="78.72" height="78.72" rx="13.88"/></clipPath><linearGradient id="Unbenannter_Verlauf_38-6" x1="-821.47" y1="218.78" x2="-806.69" y2="350.74" gradientTransform="matrix(-1, 0.06, 0.06, 1, -723.36, -34.96)" xlink:href="#Unbenannter_Verlauf_38"/><linearGradient id="Unbenannter_Verlauf_4-8" x1="-1520.8" y1="-1.77" x2="-1348.86" y2="14.66" gradientTransform="matrix(-0.95, -0.3, -0.3, 0.95, -1258.51, -247.26)" xlink:href="#Unbenannter_Verlauf_4"/><linearGradient id="Unbenannter_Verlauf_38-7" x1="-1406.13" y1="-17.11" x2="-1407.96" y2="71.6" gradientTransform="matrix(-0.95, -0.3, -0.3, 0.95, -1258.51, -247.26)" xlink:href="#Unbenannter_Verlauf_38"/><linearGradient id="Unbenannter_Verlauf_4-9" x1="-1522.79" y1="19.09" x2="-1350.86" y2="35.51" gradientTransform="matrix(-0.95, -0.3, -0.3, 0.95, -1258.51, -247.26)" xlink:href="#Unbenannter_Verlauf_4"/><linearGradient id="Unbenannter_Verlauf_4-10" x1="-1522.15" y1="12.37" x2="-1350.21" y2="28.8" gradientTransform="matrix(-0.95, -0.3, -0.3, 0.95, -1258.51, -247.26)" xlink:href="#Unbenannter_Verlauf_4"/><linearGradient id="Unbenannter_Verlauf_4-11" x1="297.34" y1="-3333.03" x2="463.6" y2="-3317.15" gradientTransform="matrix(-0.77, 0.64, -0.64, -0.77, -1714.18, -2624.52)" xlink:href="#Unbenannter_Verlauf_4"/><radialGradient id="Unbenannter_Verlauf_3" cx="388.97" cy="426.65" r="7.23" gradientTransform="translate(257.37 -350.41) rotate(11.65)" gradientUnits="userSpaceOnUse"><stop offset="0" stop-color="#ddc036"/><stop offset="1" stop-color="#f1be45" stop-opacity="0.9"/></radialGradient><linearGradient id="Unbenannter_Verlauf_14-4" x1="41" y1="266.54" x2="32.09" y2="423.94" xlink:href="#Unbenannter_Verlauf_14"/><linearGradient id="Unbenannter_Verlauf_14-5" x1="64.81" y1="267.88" x2="55.9" y2="425.28" xlink:href="#Unbenannter_Verlauf_14"/><linearGradient id="Unbenannter_Verlauf_14-6" x1="62.01" y1="208.18" x2="69.34" y2="300.88" xlink:href="#Unbenannter_Verlauf_14"/><linearGradient id="Unbenannter_Verlauf_53-6" x1="604.39" y1="191.04" x2="494.74" y2="262.45" xlink:href="#Unbenannter_Verlauf_53"/><linearGradient id="Unbenannter_Verlauf_4-12" x1="546.34" y1="359.56" x2="608.06" y2="359.56" gradientTransform="matrix(1, 0.02, -0.02, 1, -30.54, -20.44)" xlink:href="#Unbenannter_Verlauf_4"/><linearGradient id="Unbenannter_Verlauf_53-7" x1="609.81" y1="199.37" x2="500.16" y2="270.78" xlink:href="#Unbenannter_Verlauf_53"/><linearGradient id="Unbenannter_Verlauf_53-8" x1="592" y1="172.02" x2="482.35" y2="243.43" xlink:href="#Unbenannter_Verlauf_53"/><linearGradient id="Unbenannter_Verlauf_53-9" x1="588.27" y1="166.3" x2="478.63" y2="237.71" xlink:href="#Unbenannter_Verlauf_53"/><linearGradient id="Unbenannter_Verlauf_53-10" x1="610.22" y1="196.67" x2="496.33" y2="270.85" xlink:href="#Unbenannter_Verlauf_53"/><linearGradient id="Unbenannter_Verlauf_53-11" x1="624.3" y1="221.62" x2="514.66" y2="293.03" xlink:href="#Unbenannter_Verlauf_53"/><clipPath id="clip-path-4"><rect class="cls-1" x="284.51" y="140.92" width="61.03" height="61.03" rx="13.88"/></clipPath><linearGradient id="Unbenannter_Verlauf_4-13" x1="292.43" y1="206.6" x2="343.34" y2="206.6" gradientTransform="matrix(1, 0, 0, 1, 0, 0)" xlink:href="#Unbenannter_Verlauf_4"/><linearGradient id="Unbenannter_Verlauf_10" x1="273.06" y1="-3276.38" x2="223.55" y2="-3267.06" gradientTransform="translate(20.32 3548.99)" gradientUnits="userSpaceOnUse"><stop offset="0" stop-color="#04808a"/><stop offset="0.97" stop-color="#0c173d"/></linearGradient><linearGradient id="Unbenannter_Verlauf_38-8" x1="159.59" y1="-3272.52" x2="240.54" y2="-3270.02" gradientTransform="translate(5.99 3568.72)" xlink:href="#Unbenannter_Verlauf_38"/><linearGradient id="Unbenannter_Verlauf_4-14" x1="590.06" y1="252.38" x2="649.75" y2="252.38" gradientTransform="matrix(1, 0, -0.18, 1, -269.37, 0)" xlink:href="#Unbenannter_Verlauf_4"/></defs><path class="cls-2" d="M596.33,359.78c-.69-29.4-18.84-54.51-39.35-71.46s-44.13-28.37-64.23-46c-5.58-4.9-11.06-10.54-13.76-18.07-2.6-7.27-2.33-15.46-2.17-23.34.6-29-2.53-61.85-22-79.72-15.29-14-36.29-14.63-55.69-14.65l-71.92-.08c-8.77,0-17.92-.12-25.74-4.78-8.76-5.22-14.51-15.35-19.45-25.31-12.19-24.64-23.3-52.71-45-65.51C219.84.78,199.56,2.45,180.53,5.25,169.79,6.82,150.82,20.57,141.7,27.4,122.11,42.05,56.89,20.41,39,40.93c-42.38,48.68,13,105,1,122.23-5.58,8.06,9.09,23.94,7.85,33.33h0c-4.93,4.2-15.87,54-6.76,78.88C48.64,295.87,15,305.91,5,324.85c-7.88,14.85-5,35,3.48,49.37s21.57,24,34.76,32.23c88.54,54.95,199.12,58.25,289.93,8.64,21.87-11.94,45.23-27.17,68.66-20.42,6.36,1.83,12.31,5.23,18.2,8.6,21.8,12.48,43.89,24.94,67.56,31.16s49.41,5.71,71.1-7S597,388.2,596.33,359.78Z"/><path class="cls-3" d="M23.69,163.14s4.53-7.63,6.07-8.31,3.72-1.06,5.63-2.43,4.42-2.49,4.29-2.94-2.39-.28-4.79.77-3.46.54-3.69,0,1.29-4.38,2-5.29,5.9-6.11,5-6.88-4.22,2.08-4.77,2.67c0,0,2.68-5.62,1.64-5.89s-3,1.72-3,1.72.23-4.81-4.94,3c0,0,1.09-2.58-.5-1.72s-3.13,5.72-3.63,8.17-2.76,10.25-4.69,12.13S23.69,163.14,23.69,163.14Z"/><ellipse class="cls-4" cx="60.54" cy="442.08" rx="59.71" ry="8.5"/><ellipse class="cls-4" cx="528.26" cy="438.75" rx="65.18" ry="9.28"/><path class="cls-5" d="M408.41,420.36H384.73c-1.21,0-2.05-1.28-2.05-3.11V323.08a2.31,2.31,0,0,0-.14-.85h-183a2.31,2.31,0,0,0-.14.85v94.17c0,1.83-.84,3.11-2.06,3.11H173.66c-1.21,0-2.06-1.28-2.06-3.11V323.08c0-1.83.85-3.1,2.06-3.1H408.41c1.21,0,2.06,1.27,2.06,3.1v94.17C410.47,419.08,409.62,420.36,408.41,420.36Zm-234.34-2.1h0Zm211-.15h23a2.61,2.61,0,0,0,.14-.86V323.08a2.54,2.54,0,0,0-.14-.85H384.86a5.62,5.62,0,0,1,.07.85v94.17A2.72,2.72,0,0,0,385.06,418.11Zm-211.07,0h23a2.72,2.72,0,0,0,.13-.86V323.08a5.62,5.62,0,0,1,.07-.85H174a2.54,2.54,0,0,0-.14.85v94.17A2.61,2.61,0,0,0,174,418.11Z"/><path class="cls-6" d="M408.41,419.73H384.73c-.83,0-1.43-1-1.43-2.48V323.08c0-.92-.32-1.44-.44-1.48H173.66a2,2,0,0,0-.43,1.48v94.17c0,.92.32,1.44.44,1.48v1c-.83,0-1.43-1-1.43-2.48V323.08c0-1.44.6-2.48,1.43-2.48H382.87c.83,0,1.43,1,1.43,2.48v94.17c0,.92.32,1.44.45,1.48h23.66a2,2,0,0,0,.43-1.48V323.08c0-.92-.32-1.44-.44-1.48v-1c.83,0,1.43,1,1.43,2.48v94.17C409.84,418.69,409.24,419.73,408.41,419.73Z"/><path class="cls-7" d="M170.5,314.85H385.31a0,0,0,0,1,0,0v4.91a0,0,0,0,1,0,0h-214a.84.84,0,0,1-.84-.84v-4.07A0,0,0,0,1,170.5,314.85Z"/><path class="cls-7" d="M385.31,313.64h26.26a0,0,0,0,1,0,0v5.29a.84.84,0,0,1-.84.84H385.31a0,0,0,0,1,0,0v-6.13A0,0,0,0,1,385.31,313.64Z"/><path class="cls-6" d="M388.74,312.21H169.2c-.24,0-.44.41-.44.92v2.74c0,.51.2.92.44.92H388.74Z"/><path class="cls-6" d="M412.8,312.21H384.33c-.24,0-.44.41-.44.92v2.74c0,.51.2.92.44.92H412.8c.28,0,.51-.48.51-1.07v-2.44C413.31,312.69,413.08,312.21,412.8,312.21Z"/><polygon class="cls-8" points="323.99 312.21 302.24 312.21 291.36 287.55 313.12 287.55 323.99 312.21"/><polygon class="cls-9" points="321.55 312.21 299.79 312.21 288.91 287.55 310.67 287.55 321.55 312.21"/><path class="cls-10" d="M325.75,309H284a1.61,1.61,0,0,0,0,3.22h41.76a1.61,1.61,0,0,0,0-3.22Z"/><path class="cls-11" d="M261.63,295.92a6.19,6.19,0,0,1-6.26-7.29l9.45-66.81a8.69,8.69,0,0,1,8.32-7.29h85.91a6.19,6.19,0,0,1,6.26,7.29l-9.45,66.81a8.68,8.68,0,0,1-8.32,7.29Z"/><path class="cls-12" d="M257.66,295.92a6.19,6.19,0,0,1-6.26-7.29l9.44-66.81a8.7,8.7,0,0,1,8.33-7.29h85.91a6.18,6.18,0,0,1,6.25,7.29l-9.44,66.81a8.69,8.69,0,0,1-8.32,7.29Z"/><path class="cls-13" d="M258.42,290.55a3.58,3.58,0,0,1-3.63-4.22l8.8-62.21a5,5,0,0,1,4.82-4.22h85.91a3.58,3.58,0,0,1,3.62,4.22l-8.79,62.21a5,5,0,0,1-4.82,4.22Z"/><polygon class="cls-14" points="352.5 262.58 458.85 108.32 97.55 103.45 260.23 262.58 352.5 262.58"/><g class="cls-15"><rect class="cls-16" x="183.77" y="-70.24" width="192.85" height="361.3" rx="8.68" transform="translate(390.6 -169.79) rotate(90)"/></g><path class="cls-17" d="M422.19,179V113.19H421v-.61H274.33V45.44a9.76,9.76,0,1,0-1.81-.09v67.23H125.26v.91h-.6V179a9.71,9.71,0,1,0,1.81.05V114.4h146V179a9.76,9.76,0,1,0,1.81,0V114.4H420.38V179a9.76,9.76,0,1,0,1.81,0Z"/><g class="cls-18"><g class="cls-19"><path class="cls-20" d="M460.84,108.67v4.56c-5-1.17-10.07-2.41-15.13-3.68-3.87-1-7.76-2-11.64-3l-1.88-.47c-10.85-2.79-21.79-5.59-33.06-8.18l-.12,0q-4.23-1-8.51-1.88c-8.82-1.89-17.87-3.6-27.26-5a363,363,0,0,0-40.18-3.87c-10.46-.39-21.42-.36-32.93.25a262.63,262.63,0,0,0-41.27,5.31c-4.29.92-8.36,1.91-12.26,3-1.51.39-3,.8-4.44,1.22-1,.29-2.08.6-3.09.9l-.08,0c-2.78.82-5.49,1.66-8.1,2.51l-1.36.44c-3.19,1-6.28,2.06-9.3,3.08l-2.2.72c-14.32,4.77-28.23,9-45.1,10.61l-.2,0c-1.42.14-2.87.25-4.33.35-1.25.08-2.52.16-3.81.2s-2.39.09-3.63.12c-5.5.1-10.49,0-15-.2a125.79,125.79,0,0,1-24.89-3.4c-2-.53-3.8-1.06-5.25-1.56-4.31-1.5-6.21-2.79-6.28-3v-5.37s1.47,1.69,6.28,3.6a47.54,47.54,0,0,0,5.25,1.73c5.5,1.54,13.49,3,24.89,3.65,4.24.25,8.95.39,14.18.39h.78c1.23,0,2.45,0,3.66,0s2.56-.11,3.83-.19c.7,0,1.38-.09,2.07-.15s1.49-.12,2.24-.19l.2,0c15.47-1.55,28.42-5.88,42.93-10.74,3.13-1,6.3-2.11,9.6-3.18,2.19-.72,4.43-1.42,6.74-2.14l.07,0c2.19-.67,4.46-1.34,6.78-2,.24-.07.49-.13.73-.21,6.58-1.83,13.63-3.56,21.44-5a279.15,279.15,0,0,1,38.1-4.5c12.17-.65,23.7-.69,34.71-.24a369.53,369.53,0,0,1,39.21,3.65c12.1,1.76,23.65,4,34.83,6.48,2.89.65,5.78,1.3,8.63,2l.85.2c9,2.13,17.79,4.37,26.52,6.61l1.69.44,9.95,2.54Q453.27,106.87,460.84,108.67Z"/></g><g class="cls-21"><path class="cls-22" d="M460.84,74.43v4.83c-5.35,1.07-10.71,2.34-16.13,3.78-3.53.93-7.07,1.94-10.64,3-8.34,2.49-16.78,5.32-25.34,8.39l-2,.73c-2.21.8-4.42,1.61-6.65,2.44l-.92.33c-10.86,4-22,8.43-33.42,12.95a180.85,180.85,0,0,1-17.18,5.83q-5.05,1.42-9.85,2.45a136.32,136.32,0,0,1-14.76,2.3c-4.07.39-8,.58-11.82.58-19.22,0-35.65-4.67-51.1-10.68-2.87-1.11-5.69-2.27-8.51-3.46-3.7-1.55-7.35-3.14-11-4.74-3.25-1.42-6.5-2.83-9.8-4.24L229,97.79l-.48-.2c-1.93-.8-3.86-1.59-5.82-2.35l-.49-.2c-1.48-.57-2.95-1.14-4.44-1.68-.57-.22-1.13-.43-1.7-.63l-.49-.18a168.76,168.76,0,0,0-26.39-7.27A193.87,193.87,0,0,0,163,82.21l-.24,0c-1.45-.06-2.87-.1-4.27-.13s-2.62,0-3.87,0A146.76,146.76,0,0,0,136,83.22a115.78,115.78,0,0,0-24.89,5.87c-2,.74-3.76,1.46-5.25,2.11a48.82,48.82,0,0,0-6.28,3.25v-6a33.62,33.62,0,0,1,6.28-3c1.45-.55,3.18-1.15,5.25-1.77,2.68-.83,5.93-1.7,9.79-2.55A134.39,134.39,0,0,1,136,78.71a170.36,170.36,0,0,1,18.62-.9c1.27,0,2.54,0,3.87.07s2.82.08,4.27.15H163a224,224,0,0,1,28.84,3.35,162.71,162.71,0,0,1,20.13,5c1.47.45,2.93.93,4.36,1.42l.11,0c.78.26,1.55.52,2.31.8.95.32,1.89.66,2.83,1l.06,0c2.26.83,4.49,1.7,6.7,2.56,0,0,0,0,0,0l1.45.59c2.31.93,4.57,1.87,6.82,2.83s4.2,1.8,6.28,2.71l3.79,1.65c24.57,10.75,46.72,20.45,76.39,17.36,11.31-1.19,23.72-4.23,37.79-9.77l2.39-.94C372.45,103,381.53,99.43,390.5,96q3.81-1.44,7.57-2.84L401,92.12c11.18-4.11,22.21-7.87,33.11-11.07,2.36-.69,4.71-1.36,7.05-2Q451,76.37,460.84,74.43Z"/></g></g><rect class="cls-23" x="432.23" y="140.92" width="61.48" height="61.48" rx="13.88"/><g class="cls-24"><g class="cls-25"><path class="cls-26" d="M448.83,232.06s4.37-2.43,6.13-1.46-.38,5.19-.38,5.19a4.43,4.43,0,0,1-3.68,1.46c-2.61,0-3.5-4.91-2.78-5.05Z"/><ellipse class="cls-4" cx="456.06" cy="366.16" rx="51.37" ry="14.44"/><path class="cls-26" d="M517,211.26s0-5.24,1.73-6.36,4.25,3,4.25,3a4.92,4.92,0,0,1-.54,4.12c-1.29,2.39-5.9.74-5.67,0Z"/><path class="cls-26" d="M513.77,213.93l6.57-7.92s2-3.64,3.76-2.36,3.07,4.43,3.38,6.36-.52,3-1.1,4.11-4.91,3.55-8.38,2.51S513.77,213.93,513.77,213.93Z"/><path class="cls-26" d="M519.2,208.42h0c-.94,0-1.71.14-1.67-.89l1.32-4.16c0-1-.87-3.27.07-3.24a2.19,2.19,0,0,1,2.18,2.13l.33,4.27A2.29,2.29,0,0,1,519.2,208.42Z"/><path class="cls-27" d="M485.68,188l16.94,34.16S498,228.8,496.68,229,482,209.88,482,209.88Z"/><path class="cls-28" d="M489.28,220.06l5.43,11,24.61-13.21s-4.78-2.89-3.4-7.64Z"/><path class="cls-29" d="M457.49,194.17,428.85,218a2.23,2.23,0,0,1-1.78.72l-7.59-1.28a2.16,2.16,0,0,1-1.51-3.21c3.18-5.47,17.13-20.57,25-28.54,6.33-6.43,12.13,2.55,14.16,6.3C457.58,192.86,458.22,193.51,457.49,194.17Z"/><path class="cls-30" d="M430.64,348.33s-5.25,14.79-5.75,17.68-.85,9.9,1.74,10.09c6.78.51,9.56-6.63,11.41-9.73,1.36-2.26.74-17.36,1.21-17.86S430.64,348.33,430.64,348.33Z"/><path class="cls-31" d="M478.24,352.77s4.06,4.56,6.82,5.86,9.11,4.06,10.19,4.6a2.11,2.11,0,0,1,.77,2.68c-.34.67-16.76-.05-20.22-1.34a68.48,68.48,0,0,0-7.83-2.24s.22-4.25.5-7.72S478.24,352.77,478.24,352.77Z"/><path class="cls-32" d="M483.05,228c-.14,4.84.65,17.17,1,20.7,1.91,19.94,5,58.18,5,58.18l-4.91,2.76-10.36-2.26-9.51-49L479,227.18Z"/><polygon class="cls-33" points="454.29 226.12 455.04 248.73 471.88 265.27 479.69 257.77 484.04 233.48 454.29 226.12"/><polygon class="cls-34" points="469.5 234.19 476.81 252.65 456.06 305.35 441.03 309.4 440.1 304.72 452.58 247.56 454.23 227.97 469.5 234.19"/><path class="cls-35" d="M440.1,304.72l-13,51.35s.33,2.8,5.83,3,6.44-1,6.44-1l16.72-52.65Z"/><path class="cls-36" d="M476.49,305.35l-2.76,2-5.25,46s6.36,3.67,12.2,1L489,306.85Z"/><path class="cls-26" d="M458.81,166.71s.85,10.43-1.26,15.32c0,0,5.58,18.11,21.67,9.49,0,0-2.18-7.12-7.72-9.42,0,0-1.44-3-.46-10.29C471.41,169.13,458.81,166.71,458.81,166.71Z"/><path class="cls-26" d="M453.47,160.45s1.65,7.79,6.41,13.07c1.7,1.88,11.66,2.9,13.71,1.89,1.68-.82,2.24-6.16,2.33-9.62.09-3.66-1.21-11.66-2.54-13.33-4.46-5.53-4.43-9-12-6.82C450.82,148.71,453.47,160.45,453.47,160.45Z"/><path class="cls-6" d="M458.45,170a1.58,1.58,0,0,0,1.25-1.9c-.21-1.67-1.31-11.62,2.56-12.71s9.93.84,9.93.84,7.58-2.27,7-7.06a16.54,16.54,0,0,1-4.91-2c-2.83-1.65-8.46-4.55-15.35-1.88s-6.52,9.95-6.41,12.28,2.45,9.89,3.33,11.43A2.28,2.28,0,0,0,458.45,170Z"/><path class="cls-26" d="M460.3,167.64s-4.27-4.52-6-3.77.08,6.6,1.94,7.91a4.54,4.54,0,0,0,4.18.22Z"/><path class="cls-37" d="M458.13,180.28S463,195,473,192.15c1.56-.45,4-4.17-1.58-10.35,0,0,13.9,4,14.32,6.18,3,15.72.63,34.31,1.08,67.84,0,0-21,5.87-38.11-2.33,0,0,4.35-20.9,0-33.77-5.06-15.06-7.65-33.29-4.87-35C446.93,182.86,458.13,180.28,458.13,180.28Z"/><path class="cls-26" d="M443.78,231,455,233s4.58-.09,4.29,2.32-2.64,5.3-4.34,6.63-3.14,1.08-4.56,1.16-6.07-2.77-6.91-6.62S443.78,231,443.78,231Z"/><path class="cls-38" d="M427,211.53l-8.41,5.52,25.94,21.84s.36-5.3,4.19-6.86Z"/></g></g><rect class="cls-23" x="286.8" y="21.28" width="61.48" height="61.48" rx="13.88"/><g class="cls-39"><g class="cls-24"><path class="cls-6" d="M330.42,45.44c-1.11,4.73-2.93,8.46-5.08,8s-3-4.75-1.88-9.47,3.75-8.15,5.89-7.65S331.52,40.72,330.42,45.44Z"/><path class="cls-40" d="M337.52,275.94s.52,2.81.44,2.86-9,1.51-8.76-.74c.22-1.83.54-3.81.54-3.81Z"/><path class="cls-40" d="M307.94,275.53s0,2.84-.1,2.89-8.73,1-8.51-1.18a23.88,23.88,0,0,1,.84-3.87Z"/><path class="cls-41" d="M339.66,150.41s8,35.45,9.87,46.24c1.56,9.19,2.81,18.76,2.06,25.4-.93,8.21-12.56,50.77-12.07,53.18s-12.17.39-12.17.39,8.85-47.48,7.08-56.32c-1.31-6.55-12.77-50-14.53-47.79s-3.93,41-5.23,47.47-5.3,57.34-5.3,57.34-8.93,1.32-11.31-.7c0,0-1.09-43.46-.26-55.54.32-4.6-5.39-55.18,1.93-75.54C303.6,133.77,339.66,150.41,339.66,150.41Z"/><path class="cls-13" d="M374.64,117.89c-5.73-.8-23.75,7.18-25.39,6.57-1.12-.41-3.77-9-5.65-15.54-1.12-3.85-2-7-2.09-7.23h0a38.38,38.38,0,0,1-.06,7c0,.25-.05.5-.08.76a1.36,1.36,0,0,0,0,.2,33.2,33.2,0,0,1-.82,4.36,40,40,0,0,0-.94,8.18v.09a1.48,1.48,0,0,0,0,.21v.09c-.16,5.58.22,11.59.38,14.8.25,5,1.13,9.34,1.08,9.4l-.77,3.9s-14.15,16.55-39.86-11.41h0s-1.69-12-1.82-18.46c-.12-6-3.3-18-3.82-20,0,0,0,0,0,0s0,0,0,0,0-.06,0-.08,0,0,0-.05h0v0s-9.53,10-11.38,14.38c-.56,1.32-2.29,4.93-4.48,9.31-1.5-2.86-2.44-4.85-2.44-5.35v-.19c.14-4.32,4.67-21.83,8.24-33.27,2.77-5.58,5.16-10.08,5.93-10.63,1.16-.84,6.05-2.93,10.32-4.63l.42-.16,1.17-.46.56-.22.31-.11.24-.09h0a32.26,32.26,0,0,1,4.09-1.4h.27l.54,0c2.64.16,10.51.9,13,1.14l.79.07h0l3,1.38h0l.17.08c1.1.51,2.37,1.18,3.72,1.91,2.63,1.45,5.54,3.13,7.95,4.28s5.61,2.69,5.88,2.91l12,34.57,20.8-3.8Z"/><path class="cls-26" d="M307.73,66.51c.11,5.67,11.09,8.77,11.09,8.77s4.59-5.75,3.49-6.31c-.43-.21-.61-1.07-.66-2a20.57,20.57,0,0,1,.06-2.57c0-.41.07-.66.07-.66s-1.57-1.66-3.57-3.63c-3.48-3.44-8.27-7.86-8.28-6.1a1.47,1.47,0,0,0,0,.33C310.81,58.26,307.73,66.51,307.73,66.51Z"/><path class="cls-26" d="M309.85,54.05c.95,2.07,1.85,3.56,2.11,4.16h0a7.26,7.26,0,0,0,1.28,1.73c1.81,2,5.17,4.52,8.47,4.43a5.71,5.71,0,0,0,1.09-.14,5.19,5.19,0,0,0,3.78-2.6c6.84-13.41,1.89-24.37,1.89-24.37s-18.72-5.29-21.65.34C304.77,41.56,307.62,49.2,309.85,54.05Z"/><path class="cls-42" d="M278.82,124.25c2.32,4.43,6,10.95,9.6,17.26-.48.89-.94,1.77-1.39,2.64a53.53,53.53,0,0,0-2.74,6.11c-.82,2.3-2,8.22.23,9.32L296.07,166l.23-.64c.38-1,1.21-3.26,2.36-6.13l.33-.77c.23-.55.56-1.32.94-2.2l.53-1.24.64-1.5.92-2.14,1.4-3.26.12-.25c.38-.82.76-1.63,1.15-2.45.61-1.26,1.24-2.51,1.87-3.74l.2-.37c.11-.22.23-.43.34-.64l.21-.39a.41.41,0,0,0,.05-.09l.09-.16c3.34-6.09,7.1-11.18,8.3-18.65l.33-2.15q.26-1.79.48-3.51c.05-.43.11-.86.16-1.29.6-5,1-9.42,1.25-12.51.9-9.64-5-20.07-9.53-26.52a70.29,70.29,0,0,0-4.85-6.19s0,0,0,0l-.24.09-.31.11-.56.22-1.17.46-.42.16C296.48,71.9,286.14,75,285,75.8c-.67.48-1.07,4.36-2.81,9.91-3.57,11.44-5.69,28.69-5.79,33v.19C276.38,119.4,277.32,121.39,278.82,124.25Zm17.55-2.15a20.08,20.08,0,0,1-1.77,7.24c0,.06-.05.13-.08.19-.74-1.58-1.44-3.09-2.07-4.49h0c-1.72-3.85-2.9-6.85-3-8-.43-7.63,5.19-16.41,5.19-16.41h0s0,0,0,.05a.19.19,0,0,1,0,.08s0,0,0,0,0,0,0,0C295.9,105.36,296.37,122.1,296.37,122.1Z"/><path class="cls-43" d="M382.31,106.18l-26.16,5.69L343.68,79.26c-.27-.22-3.85-2.14-6.21-3.27s-5.58-2.62-8.35-3.89c-1.32-.62-2.57-1.19-3.62-1.67l-.08.07s1.54,5.14,3.54,18h0c.07.43.13.87.2,1.32l0,.15c0,.3.09.6.13.9,0,0,0,.08,0,.11l.09.62c.07.51.15,1,.22,1.55.89,6.25,2.14,16.88,3.35,27.61h0c.95,8.46,3.11,17.14,3.8,23.62h0a42.93,42.93,0,0,0,.9,4.87l.15.66c1.93,8.17,5.69,19.75,5.69,19.75l1.1-1,3.24-3a2.63,2.63,0,0,0,.73-2.71c-1.8-5.79-7.91-26.31-9-40.74a115.52,115.52,0,0,0,1.74-12.87.49.49,0,0,1,0,.11c.64,1.79,1.36,3.73,2.07,5.63h0c1.93,5.08,3.91,9.79,4.73,10.09,1.82.68,36.27-8.74,36.51-10.09Z"/><path class="cls-44" d="M303.3,69.2l4.43-2.69s.12,2.43,11.09,8.77l-3.34,7Z"/><path class="cls-44" d="M321.73,67.74s-.17,2.61-2.91,7.54l5.85,6.17.66-11.1Z"/><path class="cls-26" d="M303.63,151.33s1.27,2.54,2.54,3a10.85,10.85,0,0,1,3.13,2.49l-8.95,4.71s-2.39-4.66-2.5-7.63S303.63,151.33,303.63,151.33Z"/><path class="cls-45" d="M304.48,151.57l.59,1.19s-5.68,4.16-7.22,4.42l-.52-1.59Z"/><path class="cls-46" d="M305.07,151.62a43.9,43.9,0,0,1-7.85,5.15L285.14,135l6.26-12.1S304.79,149.5,305.07,151.62Z"/><path class="cls-47" d="M297,286.89s29.39,1.94,30.82.68c1.81-1.58-17.09-8.39-20-9.47-4.71.59-7.53,0-8.87-.44C297,280,297,286.89,297,286.89Z"/><path class="cls-47" d="M327.32,287.31s29.4,1.95,30.83.68c1.8-1.58-17.1-8.39-20-9.47-4.72.6-7.54,0-8.87-.43C327.26,280.46,327.32,287.31,327.32,287.31Z"/><ellipse class="cls-48" cx="368.13" cy="87.57" rx="1.34" ry="1.16" transform="translate(158.92 402.88) rotate(-69.82)"/><path class="cls-6" d="M310.07,55c.66-1.84,1.53-7.46,4.6-8.92,0,0,.49-5.66,0-6.34-1.06-1.53-9.17-3.79-10.17-3.21-2.23,1.3,4.6,17.39,4.93,18.16C309.87,55.59,310.07,55,310.07,55Z"/><path class="cls-6" d="M309.93,38.74c1-.41,3.64.76,7,1.15a36.73,36.73,0,0,0,10.42-.17c2.7-.48,6.14-1.09,6.86-3.57.52-1.81-1.11-5.4-2.24-6.6-3-3.18-13.22-2.44-19.47-4.75-5.43-2-12.78,7.28-6.11,13.83C313.36,40.21,309.93,38.74,309.93,38.74Z"/><path class="cls-26" d="M313.36,43.76c-.29-2.94-5.62-4.07-5.26-1s3,6.06,4.19,5.95S313.57,46,313.36,43.76Z"/></g></g><rect class="cls-23" x="34.5" y="104.54" width="78.72" height="78.72" rx="13.88"/><g class="cls-49"><g class="cls-24"><path class="cls-26" d="M165.73,212.86l-.41-1.6,4.92.18s4.78,2,5.39.19c.24-.76-4.93-2.84-4.93-2.84l-2.48-.85,4,1s5.31,3.31,6.07,1.25c.32-.86-5.79-3.91-5.79-3.91l-3.13-1.06,4,.85s3.66,2.13,4,1.41c.7-1.44-4.3-4.23-4.3-4.23l-3.44-.71,3.13-.12s1.71.21,2-.18c.55-.7-1-1.52-2.63-1.92s-13.62.7-13.62.7l-1.85,7a35.62,35.62,0,0,0,7.43,7.08,16.5,16.5,0,0,0,4.25.73C170.36,215.84,168.44,213.56,165.73,212.86Z"/><path class="cls-50" d="M142.59,318.72c-1.35,4.2-23.06,43.41-24.14,47.67s-9.75,22.74-9.75,22.74l-7.24-3.84s5.38-24.58,10.19-42.09h0c.47-1.7.93-3.34,1.38-4.87,1.75-6,3.34-10.49,4.44-11.89,4.34-5.47,10.73-13.08,6.07-18.06s-24.91-32.72-25.91-35.73S60,226.8,111.8,237.78c0,0,19.78,28.9,23.44,48.07S144,314.52,142.59,318.72Z"/><path class="cls-50" d="M108.7,389.13s0,3.87,1.25,6,4.32,11.63,7.25,12.62,8.68,1.13,8.73,1.58c.26,2.05-1.21,3.42-7,4.24s-12.36-6-16.94-10.73-10-6.63-7.24-10.59,6.89-8.48,7.34-9.27S108.7,389.13,108.7,389.13Z"/><path class="cls-26" d="M70.52,244s-6.22,18.91,1.15,29.78c7.23,10.67,32.38,33.53,35,37.35s7.67,8.77,4.35,10.39c-4.46,2.18-10.08,4.08-18,10.91-5.24,4.5-14.49,7.42-20.35,11.06-2.32,1.44-2.3,7.4.63,8.43,2.18.77,50.17-16.27,56.84-21.94,2.9-2.47,2.31-7.3-3.25-20.06-2.51-5.75-12.73-24.29-16-31.31-3.2-6.79-9-16.76-9-16.76S100.29,218.3,70.52,244Z"/><path class="cls-26" d="M73.72,352a55.59,55.59,0,0,0-6.92,1.09c-2.16.63-10.8,2.08-13.13,3s-3.55,4-5,3.44.59-4.26,3.06-6.63,9.71-8.87,13.13-13.08,5.48-5.11,7.94-2.1,5,7.9,6.06,9.16S73.72,352,73.72,352Z"/><path class="cls-51" d="M140.1,300.71s5.49,4.65-36,9.86c0,0-46.71-34.22-36.73-60.63,5.27-14,45.73-14.85,45.73-14.85S124.93,245.77,140.1,300.71Z"/><path class="cls-6" d="M125.93,409.31s0-2.55-8-1.64c-4.59.53-14.71-8.69-15.74-9.79s-4.19-8.06-5.66-8.1-5.21,5.56-.11,9.57,13.43,15.36,22.48,14.2C126,412.63,126.29,410.6,125.93,409.31Z"/><path class="cls-6" d="M74.08,339.35s-2.63-7.14-7.52-1.94-9.07,10.33-14.53,15-4.7,7-2.83,7.7,5.32-3.22,7.47-4.87S62.1,346.79,74.08,339.35Z"/><path class="cls-52" d="M90,163.22s6.59,0,10.48,3.86,6,10.35,7.07,12.44,14.19,21.34,14.92,21.76,11.3,7.07,17.2,12.27,16.53,11.16,16.53,11.16l-5.77,8S121,217.8,116,211.72c-5.3-6.49-22.31-25-22.31-25S79.11,170.94,90,163.22Z"/><path class="cls-53" d="M81.26,160.09s6.52,2.77,8.76,3.13,11.3,11.21,13,15.24.4,10.22-2.42,17.54.2,9.6-.94,16.85-1.79,22.54-1.36,26.53-35.76,6.16-44.31-.8c0,0,7.81-12.76,8.81-14.58s-.27-11.47-1.35-13.92-8.57-22-8.57-22-5.8-17.35-1.14-21.27c4-3.41,15.38-5,17.4-5.8S77.06,159.63,81.26,160.09Z"/><path class="cls-26" d="M71.4,115C75.15,113.52,89,109.68,93,127.42s-5.37,30.82-14.57,27.8-15.28-15.15-16.18-24.55S66.67,116.88,71.4,115Z"/><path class="cls-6" d="M93,127.42s.09-15.31-15.13-15.25S59,124.9,60.64,134a22.32,22.32,0,0,0,8.08,13.63s-.84-7.35,2-9.39,14.54-6.31,19.35-15.4C90.11,122.81,92.61,125.52,93,127.42Z"/><path class="cls-6" d="M74,126.54c-1.76,6.16-7.56,9.91-12.95,8.37s-8.33-7.79-6.57-14,7.56-9.91,13-8.37S75.73,120.38,74,126.54Z"/><path class="cls-26" d="M84,152.59s-.82,11.78-.4,15.59c0,0-6.39,6.93-14.52-7.21a19.81,19.81,0,0,0,.23-14.09C66.63,138.86,84,152.59,84,152.59Z"/><polygon class="cls-26" points="83.63 168.18 83.87 174.27 75.99 168.85 83.63 168.18"/><path class="cls-54" d="M68,161.3S77.3,177.07,78.55,183c3,14.27-4.75,48.47-7.2,63s-29.77.74-29.77.74,18.7-26.41,12.33-45.17-7.1-30.37-7.1-30.37,3.59-6.26,9.63-7.44S68,161.3,68,161.3Z"/><path class="cls-55" d="M104.42,180.08s-.92,13.66-3.4,20.53c0,0,.23,15.09.51,20.16.46,8.29,5.8,24,5.8,24l-8.4,5.55a1.35,1.35,0,0,1-2.09-1.18c.62-13.28,1.66-72.77-11.65-87.48l5.94,1.61S101.77,172.44,104.42,180.08Z"/><path class="cls-56" d="M55.06,164.1s-5.45.83-9.5,7.24c-1,1.51-1.2,15.52-1.28,19.91-.08,4.14-2.7,29-2.83,30.18s-.1,16.52.44,22c.42,4.2,1.59,30.7,1.54,31.78s11.92-1.3,11.92-1.3-.82-26.43-.88-29.11-1.12-16-.3-20c1-4.75,3.27-23.32,5-24.53C61.23,198.87,62.17,166.14,55.06,164.1Z"/><path class="cls-26" d="M83.86,155.18l-.14,2.32s-5.23,1.24-12.48-6.92C71.24,150.58,76.38,156.36,83.86,155.18Z"/><path class="cls-26" d="M87.36,291l-1.65,0,1.5,4.69s3.26,4.06,1.64,5.14c-.66.44-4.06-4-4.06-4l-1.49-2.16,2,3.6s4.63,4.22,2.85,5.51c-.74.55-5.33-4.52-5.33-4.52L81,296.61l1.9,3.59s3,2.95,2.43,3.49c-1.19,1.07-5.23-3-5.23-3l-1.6-3.12.72,3s.67,1.59.37,2c-.53.71-1.73-.53-2.56-2s-3-13.31-3-13.31l6.28-3.68a35.75,35.75,0,0,1,8.82,5.25,16.69,16.69,0,0,1,1.85,3.89C91.49,294.68,88.77,293.45,87.36,291Z"/><path class="cls-26" d="M71.81,135.06a2.22,2.22,0,0,0-3.18-1.26c-1.08.66-1.89,2.86-.58,6S74.79,145.44,71.81,135.06Z"/></g></g><path class="cls-57" d="M555.17,151.19a2.77,2.77,0,0,0-1.06,1.06,9.78,9.78,0,0,0-.58,1.4.67.67,0,0,1-.76.45l-4.32-.89a.66.66,0,0,1-.52-.71,9.69,9.69,0,0,0,0-1.52,2.69,2.69,0,0,0-.55-1.39,6.92,6.92,0,0,1-1.43-5.93,6.63,6.63,0,0,1,7.64-5.37l.32.06a6.66,6.66,0,0,1,4.9,8A7,7,0,0,1,555.17,151.19Z"/><rect class="cls-58" x="547.6" y="154.1" width="5.61" height="1.09" transform="translate(42.56 -107.94) rotate(11.65)"/><rect class="cls-58" x="547.28" y="155.64" width="5.61" height="1.09" transform="translate(42.86 -107.84) rotate(11.65)"/><path class="cls-58" d="M551.36,157.54a1.7,1.7,0,0,1-3-.61Z"/><g class="cls-59"><path class="cls-13" d="M550,153.56l-.49-.1,1.48-7.19h0a1.86,1.86,0,0,0-.33,0,1.68,1.68,0,0,1-1.32-.59,1.26,1.26,0,0,1-.1-1.12,1,1,0,0,1,.89-.73,1.57,1.57,0,0,1,1.23.32,1.39,1.39,0,0,1,.44.94l-.17.84,1.9.39-.1.49-1.9-.39Zm.33-9.29h-.2a.53.53,0,0,0-.46.37.82.82,0,0,0,0,.7,1.25,1.25,0,0,0,.94.37,2.6,2.6,0,0,1,.39.05h0l.16-.78h0a.93.93,0,0,0-.28-.53A1,1,0,0,0,550.37,144.27Z"/><path class="cls-13" d="M551.66,153.9l-.49-.1,1.48-7.2-1.89-.39.1-.49,1.89.39.17-.78a1.32,1.32,0,0,1,.79-.74,1.56,1.56,0,0,1,1.25.19,1.06,1.06,0,0,1,.54,1,1.27,1.27,0,0,1-.54,1,1.67,1.67,0,0,1-1.45,0l-.31-.1h-.06Zm1.58-7.69h.06l.38.11a1.23,1.23,0,0,0,1,0,.85.85,0,0,0,.31-.63.54.54,0,0,0-.28-.52,1.08,1.08,0,0,0-.85-.16.9.9,0,0,0-.48.42Z"/></g><g class="cls-59"><path class="cls-13" d="M558.1,144.72a.38.38,0,0,1-.38-.32,4.94,4.94,0,0,0-3.33-4.19.37.37,0,0,1-.26-.46.36.36,0,0,1,.45-.26,5.68,5.68,0,0,1,3.89,4.8.37.37,0,0,1-.32.42Z"/></g><path class="cls-3" d="M110.62,174.6s1.09-6.36-.58-8.11c-1-1-3.25-3.64-3.47-4s-2.62-1.66-2.64-2.31,2.25-1.54,4.32.24,3.34,2.13,4.14,1.9,1.69-6.94,1.73-8.59.51-6,1.55-5.78,1.07,2.16,1.07,2.16,1.08-3.35,1.9-2.73.79,2.23.79,2.23,1.43-1.91,1.89-.57a4.64,4.64,0,0,1,.09,2.55s1.52-.91,1.7,1.19S123,161,122,163.28s-4.92,8.17-5.33,10.44S110.62,174.6,110.62,174.6Z"/><path class="cls-60" d="M108,171.27l0-1.82s10.51.76,11.23.65l-.69,4.22-9.27-.48Z"/><path class="cls-60" d="M18.27,155.78l.79-1.65s9.1,5.3,9.8,5.52l-2.48,3.49-8.11-4.51Z"/><path class="cls-3" d="M64.31,193.71s2.9-5.08-1.7-18.7c-4.45-13.17-19.87-12-24.77-3.54s-3.24,13.68,4,23.21S61.32,198.07,64.31,193.71Z"/><path class="cls-61" d="M28.51,428s-.77,5.59-.86,6.43-8.49-.5-8.49-.5l-.68-6.66S27.46,427.21,28.51,428Z"/><path class="cls-62" d="M27.74,433.71A23.15,23.15,0,0,0,33,438.56c2.57,1.46,6.61,2,8.13,3.56,1.1,1.1,4,5.83-6.68,5.73s-15.83.67-17-1.14,1.65-13.38,1.65-13.38S21.71,434.07,27.74,433.71Z"/><path class="cls-61" d="M86.6,428s-.76,5.59-.86,6.43-8.48-.5-8.48-.5l-.68-6.66S85.55,427.21,86.6,428Z"/><path class="cls-62" d="M85.83,433.71a23.15,23.15,0,0,0,5.23,4.85c2.57,1.46,12,2.67,13.55,4.19,1.1,1.1,2.93,5.51-12.1,5.1-10.67-.29-15.82.67-17-1.14s1.66-13.38,1.66-13.38A43.31,43.31,0,0,0,85.83,433.71Z"/><path class="cls-63" d="M31.33,288.75S27,302.11,27.6,313.64s-2.23,24.12-3.37,36.15C23,363.22,17.75,395,17.56,402.15s-1.49,30-1.49,30l14.42.35S37.54,377,39.81,371.3s13.51-46.05,13.88-50.59S31.33,288.75,31.33,288.75Z"/><path class="cls-64" d="M74.53,287.35s6.33,35.35,7.08,42.4,1.26,34.13,1.64,38.53S85.77,426,87.78,432.5l-13.68,0s-8.79-38.86-10.89-57.06-6.87-39.85-12-51.93-16.77-12.38-19.91-34.8C31.33,288.75,70.29,280.24,74.53,287.35Z"/><path class="cls-3" d="M60.1,197.31s-1.31,3.81,0,6.53-16.75,1.09-16.75,1.09.82-5.62-1.54-10.25S60.1,197.31,60.1,197.31Z"/><path class="cls-65" d="M30.49,291.66s6.5,6.67,44.62-1l-.58-3.27L31.19,289Z"/><path class="cls-3" d="M62.83,204.73s6.67.68,8.57,1,14.73-2.29,17.37-2.57,13.85-7.95,14.21-8.86,6.33-17.36,7.19-20.81c.32-1.31,6.29-1.71,5.78.73-1,4.56-2.17,15.63-2.84,18.84-.72,3.46-2.66,11.31-3.75,12.28S98.17,214,88.28,217.29A84.07,84.07,0,0,0,71,225.37H22.21s-19-27.1-19.37-31.18,13.24-31.22,16-34.62,6.66,1.11,6.66,1.11S17.31,184.61,16.22,188s9.49,18.35,12.39,18.39,10.36-.9,13.67-1a23.26,23.26,0,0,0,6.8-1.59Z"/><path class="cls-66" d="M83.83,222.83s-6,4-6.51,10.77a140.24,140.24,0,0,1-3.81,21.22c-1.09,3.68,5.26,43.71,5.54,45.62s-47.33.37-53.16-4.16c0,0,3.67-32.2,3-39.27s-3.95-24.23-5-26.54c-.95-2-17.72-25.9-22.34-33.58a4.61,4.61,0,0,1-.29-4.21l16.18-37.46s9.61,6.12,11,6.08l-9.9,29.41a4.13,4.13,0,0,0,1,4.24C23,198.4,30.24,205.57,31.05,205.7c2.54.41,18.09-2.44,18.09-2.47s1.7,2.32,10.72-.41c0,0,10.75,1.22,12.5,1.44,1.12.14,21.94.08,29.26-11.12,1.49-2.29,6.54-21.63,6.54-21.63l11.13.93s-3.29,23.37-4.37,30.45a4,4,0,0,1-2,2.89Z"/><path class="cls-6" d="M41.81,194.68s2.39.21,7.47-1.55,5.46-10.63,6.56-9.58c2.24,2.15,2.72-3.87,3.87-5.44a29.4,29.4,0,0,1,3.35-3.27,4.59,4.59,0,0,0,.16-6.79c-3.54-3.37-10.17-6.94-20.32-2C23.85,175.2,41.81,194.68,41.81,194.68Z"/><path class="cls-60" d="M60.1,203.1l-.58-1.75s-10.13,1.53-16,.61l-.35,2.33S50.14,207.48,60.1,203.1Z"/><path class="cls-3" d="M57.54,181.37c-.95-1.56-4.43-2.62-4.84,1.82-.32,3.44,6.23,7.19,6.29,4A9.76,9.76,0,0,0,57.54,181.37Z"/><path class="cls-67" d="M482.79,245.92c3.23-10.32,22.31-33.83,32.55-40.5,4.27-2.78,6.29,19.67,5.24,22.52-.83,2.28-12.91,13.2-22.71,20.25.25.37.5.75.79,1.1,2.81,3.54,13.81,16.34,19.32,23.08,2.15,2.29,4.28,4.21,4.31,4.48v0c1.51.95,2.25,3.42,2.56,4.93a6.17,6.17,0,0,1-.62,4.68,5.29,5.29,0,0,1-3.61,2.05,12.68,12.68,0,0,1-4.25-.24,5.11,5.11,0,0,1-2.76-1.16,1.88,1.88,0,0,1-.09-2.68c.94-.74,2.49-.07,3.42-.82s.57-1.93.53-3.05l-.18,0c-.34.09-1.69-1.1-3.67-2.64l-1.51,1.94c-8.86-6-25-21.28-27.71-24.74a8.11,8.11,0,0,1-2-4,5.46,5.46,0,0,1-.26-1.25A10.75,10.75,0,0,1,482.79,245.92Z"/><path class="cls-47" d="M555.5,417.14s2.18,9.1,1.27,12.74a25.8,25.8,0,0,0-.31,8.17s18.57,10.08,19.86,9.22c1.86-1.24-1.71-4.78-2.85-6.44s-7.47-9.79-7.92-12.3-.76-10.51-.76-10.51Z"/><path class="cls-13" d="M555.49,417.2s2,8.5,1.42,12c0,0,9.07,1.9,8.63-.61s-.77-10.51-.77-10.51Z"/><path class="cls-47" d="M516.75,416s-2.62,9-1.9,12.66a25.73,25.73,0,0,1-.1,8.18s-19,9.24-20.3,8.32c-1.79-1.32,1.95-4.69,3.17-6.3s8-9.45,8.53-11.93,1.28-10.47,1.28-10.47Z"/><path class="cls-13" d="M516.77,414.91s-2.47,8.41-2,11.93c0,0-9.16,1.49-8.59-1s1.29-10.46,1.29-10.46Z"/><path class="cls-68" d="M554.36,286.34l-9.9-3.95-29.68-4-9.34,145.82s2.76,3.59,11.16-.39l16.74-87.58,21.57,89.62a16.29,16.29,0,0,0,12.25-1.07Z"/><path class="cls-69" d="M555.45,204.45c-1.7-.5-13.64.26-10.46,8.75,4,10.55,11.87,19.13,18.47,28.26a40.92,40.92,0,0,0,6.76,7.84,13.67,13.67,0,0,0,9.53,3.43c1.8-.15,2.51-2.38,3.39-4.15a8.28,8.28,0,0,0,.62-4C583.9,237.82,564.87,207.27,555.45,204.45Z"/><path class="cls-70" d="M540.48,197.61c-2.73,3.31-3.4,8-8.68,10.39,2,2.49,4.45,4.51,6.43,7Z"/><path class="cls-71" d="M528.42,199.6s-.37,1.58,1.54,5.93c.75,1.7,2,2.21,1.87,2.47-.63,1.51-6.69,5-6.69,5l2-12.09Z"/><path class="cls-6" d="M525,165.75s-3.35,7.33-1.9,13.22c0,0,1.79,3.12,4.36,2L530,166.69l-2.29-2.45Z"/><path class="cls-26" d="M546.86,176.55s-1.93,9.17-7.42,15.39c-2,2.22-13.45,3.45-15.8,2.27-1.94-1-2.56-7.24-2.65-11.31-.1-4.31,1.42-13.71,3-15.68,5.14-6.53,5.12-10.63,13.84-8.06C550,162.74,546.86,176.55,546.86,176.55Z"/><path class="cls-72" d="M554.74,284s-.61-11.5-.74-29.63c0-4.7,1-14.58,1.23-19.77.41-10.2.17-15.24.15-17.9-.06-9.22,14.39-9.25-14.9-17.55l-.93,4.93-11.48-2.58.35-.39.11-2c-19.39,7.83-16.67,8.33-16.74,17.55,0,2.66-.26,7.7.16,17.9.21,5.19,1.26,15.07,1.22,19.77-.13,18.13-.16,31.12-.16,31.12C512.7,291.18,557.68,292,554.74,284Z"/><path class="cls-26" d="M548.58,282.35a6.13,6.13,0,0,0,1.34,4.52,5.28,5.28,0,0,0,3.89,1.47,12.73,12.73,0,0,0,4.16-.91,5.08,5.08,0,0,0,2.54-1.57,1.88,1.88,0,0,0-.32-2.66c-1.05-.59-2.48.32-3.51-.28s-.83-2.12-1.06-3.3c0-.28,3.7-3.12,3.72-3.63,0-2-3.41-2.71-4.6-2.93-.42-.08-3.11,3.36-3.53,3.49C549.12,277.21,548.67,280.51,548.58,282.35Z"/><path class="cls-26" d="M529.07,187.66l-.8,14.69c-.17,3,1.54,5.5,3.91,5.72.6.05,1.24.09,1.88.08a6.4,6.4,0,0,0,6.53-6.44c-.06-5.2-.67-13.91,0-18.36C541.76,176.07,529.63,183.94,529.07,187.66Z"/><path class="cls-73" d="M584,244.26c-.69-1.54-2.47-2.24-4.11-2.58a17.32,17.32,0,0,0-8.87.24c-1.87.67-2.21,2.5-3.1,4.07-2.23,3.93-11.09,18.3-15.49,25.82l7,6.54c7.82-7.31,21.38-24.92,23.51-28.76C583.88,247.94,584.8,246,584,244.26Z"/><path class="cls-6" d="M543.48,187l-.85,0c-2-.2,2.77-16-1.94-17.28s-19.81,2.72-19.81,2.72-2.72-2.31-2-8.16c0,0,12.23-9.07,20.62-5.82s11.34,10.54,11.2,13.39-3,12-4.05,13.92A2.79,2.79,0,0,1,543.48,187Z"/><path class="cls-26" d="M539.26,180.73s4.42-4.68,6.19-3.91-.09,6.85-2,8.2a4.75,4.75,0,0,1-4.34.23Z"/><rect class="cls-23" x="284.29" y="140.47" width="61.48" height="61.48" rx="13.88"/><g class="cls-24"><path class="cls-6" d="M325.26,168.55s4.77-14-4.34-18.34-16.84,1.94-18.3,5.33-1.07,9.57.17,13.87,1.07,10.86-1.64,13.05-6.06,5.83-5.9,13.24c.11,4.59,18.09-11.76,18.09-11.76Z"/><path class="cls-26" d="M317.14,152.6s9.47,2.81,8.12,16-7.54,12.47-8.12,12.57-7.93.58-10.25-15.37S317.14,152.6,317.14,152.6Z"/><path class="cls-26" d="M321.65,178.7s-.5,4.35.34,7.06-11,2.78-11,.56c0-2.53,1.22-4.64.08-9S321.65,178.7,321.65,178.7Z"/><path class="cls-6" d="M314.69,158.46s5.15,8.19,10.57,10.09c0,0,3-13.74-9.26-16.62s-10.31,13.88-9.39,18.35A36.35,36.35,0,0,1,314.69,158.46Z"/><path class="cls-74" d="M307.06,157.82s2.71-5.25,7.28-5.48,7.3,3.73,7.3,3.73a7.78,7.78,0,0,0-7.29-4.47C308.84,151.6,307.06,157.82,307.06,157.82Z"/><path class="cls-26" d="M323.2,185.13s-.17,9.1-7.38,9.37-5.72-8.72-5.72-8.72S315.38,183.64,323.2,185.13Z"/><g class="cls-75"><path class="cls-76" d="M312.46,185.2S305,186.86,302,188.6s-9.57,9.72-9.57,13.16,28.86,6.64,28.86,6.64l5.47,20s14.59-3.56,16.32-6.51-5.74-24-6.78-28.39-6.5-7.42-12.58-8.27A41.79,41.79,0,0,0,312.46,185.2Z"/></g></g><ellipse class="cls-4" cx="302.34" cy="418.19" rx="128.84" ry="7.91"/><rect class="cls-77" x="187.9" y="283.33" width="51.63" height="8.54" rx="0.95" transform="translate(427.42 575.2) rotate(180)"/><rect class="cls-7" x="184.47" y="303.1" width="51.63" height="8.54" rx="0.93" transform="translate(420.58 614.74) rotate(180)"/><rect class="cls-78" x="180.73" y="291.83" width="51.63" height="11.27" rx="1.11" transform="translate(413.08 594.94) rotate(180)"/><rect class="cls-6" x="226.21" y="303.1" width="4.44" height="8.54" transform="translate(456.86 614.74) rotate(180)"/><rect class="cls-6" x="224.67" y="291.83" width="1.89" height="11.27" transform="translate(451.22 594.94) rotate(180)"/><rect class="cls-61" x="233.43" y="283.5" width="1.89" height="8.54" transform="translate(468.76 575.54) rotate(180)"/><rect class="cls-61" x="194.12" y="283.5" width="1.89" height="8.54" transform="translate(390.13 575.54) rotate(180)"/><rect class="cls-6" x="187.9" y="291.83" width="0.95" height="11.27" transform="translate(376.74 594.94) rotate(180)"/><rect class="cls-6" x="185.33" y="291.83" width="0.95" height="11.27" transform="translate(371.61 594.94) rotate(180)"/><rect class="cls-6" x="219.94" y="291.83" width="3.83" height="11.27" transform="translate(443.71 594.94) rotate(180)"/><circle class="cls-6" cx="221.76" cy="307.67" r="2.49"/><circle class="cls-6" cx="214.36" cy="297.47" r="3.76"/><circle class="cls-61" cx="228.92" cy="287.6" r="2.36"/><path class="cls-3" d="M29.76,154.83c1.55-.68,3.72-1.06,5.63-2.43s4.42-2.49,4.29-2.94-2.39-.28-4.79.77-3.46.54-3.69,0,1.29-4.38,2-5.29S28.22,155.51,29.76,154.83Z"/><path class="cls-79" d="M332,265l2.2-12.44H334l0-.12H306.22l2.24-12.7a2.3,2.3,0,0,0,2.09-1.84,1.5,1.5,0,0,0-1.52-1.84,2.29,2.29,0,0,0-2.17,1.84,1.5,1.5,0,0,0,1.26,1.83l-2.24,12.71H278l0,.18h-.11L275.69,265a2.3,2.3,0,0,0-2.05,1.84,1.51,1.51,0,0,0,1.52,1.85,2.3,2.3,0,0,0,2.17-1.85A1.51,1.51,0,0,0,276,265l2.16-12.22h27.63L303.66,265a2.33,2.33,0,0,0-2,1.84,1.51,1.51,0,0,0,1.52,1.84,2.29,2.29,0,0,0,2.17-1.84A1.5,1.5,0,0,0,304,265l2.15-12.21h27.62L331.63,265a2.33,2.33,0,0,0-2,1.84,1.5,1.5,0,0,0,1.52,1.84,2.29,2.29,0,0,0,2.17-1.84A1.5,1.5,0,0,0,332,265Z"/></svg>