<svg id="Ebene_1" data-name="Ebene 1" xmlns="http://www.w3.org/2000/svg" xmlns:xlink="http://www.w3.org/1999/xlink" viewBox="0 0 680 510"><defs><style>.cls-1,.cls-15,.cls-25,.cls-28,.cls-31,.cls-4{opacity:0.63;}.cls-1{fill:url(#Unbenannter_Verlauf_27);}.cls-2{fill:#4f4f4f;opacity:0.1;}.cls-3{opacity:0.51;}.cls-4{fill:url(#Unbenannter_Verlauf_36);}.cls-5{opacity:0.74;}.cls-6{opacity:0.43;}.cls-7{fill:url(#linear-gradient);}.cls-8{opacity:0.22;}.cls-9{fill:url(#linear-gradient-2);}.cls-10{fill:url(#linear-gradient-3);}.cls-11{fill:url(#linear-gradient-4);}.cls-12{opacity:0.67;}.cls-13{fill:#fff;}.cls-14{opacity:0.36;isolation:isolate;}.cls-15{fill:url(#Unbenannter_Verlauf_36-2);}.cls-16{opacity:0.8;}.cls-17{fill:url(#Unbenannter_Verlauf_24);}.cls-18{fill:url(#Unbenannter_Verlauf_24-2);}.cls-19{fill:url(#Unbenannter_Verlauf_24-3);}.cls-20{fill:url(#Unbenannter_Verlauf_24-4);}.cls-21{opacity:0.54;}.cls-22{fill:#085da8;}.cls-23{fill:url(#Unbenannter_Verlauf_5);}.cls-24{opacity:0.2;}.cls-25{fill:url(#Unbenannter_Verlauf_36-3);}.cls-26{fill:url(#Unbenannter_Verlauf_24-5);}.cls-27{fill:url(#Unbenannter_Verlauf_5-2);}.cls-28{fill:url(#Unbenannter_Verlauf_36-4);}.cls-29{fill:url(#Unbenannter_Verlauf_24-6);}.cls-30{fill:url(#Unbenannter_Verlauf_5-3);}.cls-31{fill:url(#Unbenannter_Verlauf_36-5);}.cls-32,.cls-35{opacity:0.28;}.cls-33{fill:url(#Unbenannter_Verlauf_10);}.cls-34{fill:#103257;}.cls-35{fill:#262626;}.cls-36{fill:url(#linear-gradient-5);}.cls-37{fill:#ffb68e;}.cls-38{fill:#0c173d;}.cls-39{fill:#f2f2f2;}.cls-40{fill:url(#Unbenannter_Verlauf_38);}.cls-41{fill:#000538;}.cls-42{fill:url(#New_Gradient_Swatch_copy_10);}.cls-43{opacity:0.64;}.cls-44{fill:#efa884;}.cls-44,.cls-46,.cls-48{opacity:0.78;}.cls-45{opacity:0.86;}.cls-46{fill:url(#New_Gradient_Swatch_copy_10-2);}.cls-47{opacity:0.49;}.cls-48{fill:url(#New_Gradient_Swatch_copy_10-3);}.cls-49{fill:url(#Unbenannter_Verlauf_53);}.cls-50{fill:url(#Unbenannter_Verlauf_53-2);}.cls-51{fill:url(#Unbenannter_Verlauf_53-3);}.cls-52{fill:url(#Unbenannter_Verlauf_53-4);}.cls-53{fill:url(#Unbenannter_Verlauf_170);}.cls-54{fill:url(#Unbenannter_Verlauf_170-2);}.cls-55{fill:url(#Unbenannter_Verlauf_53-5);}.cls-56{fill:url(#Unbenannter_Verlauf_38-2);}.cls-57{opacity:0.5;}.cls-58{fill:#0a2949;}.cls-59{fill:#82b9e5;}.cls-60{fill:#4991cd;}.cls-61{fill:#abcacc;}.cls-62{fill:#16355b;}.cls-63{fill:url(#Unbenannter_Verlauf_10-2);}.cls-64{fill:url(#Unbenannter_Verlauf_10-3);}.cls-65{fill:url(#Unbenannter_Verlauf_10-4);}.cls-66{fill:url(#Unbenannter_Verlauf_10-5);}</style><linearGradient id="Unbenannter_Verlauf_27" x1="605.25" y1="74.09" x2="-225.55" y2="727.77" gradientUnits="userSpaceOnUse"><stop offset="0" stop-color="#fff"/><stop offset="1" stop-color="#79c0fb"/></linearGradient><linearGradient id="Unbenannter_Verlauf_36" x1="283.48" y1="40.27" x2="286.58" y2="186.8" gradientTransform="translate(135.35 436.26) rotate(-90)" gradientUnits="userSpaceOnUse"><stop offset="0" stop-color="#0480ef"/><stop offset="0.97" stop-color="#79c0fb"/></linearGradient><linearGradient id="linear-gradient" x1="40.81" y1="534.32" x2="406.49" y2="534.32" gradientTransform="translate(62.16 -311.07)" gradientUnits="userSpaceOnUse"><stop offset="0" stop-color="#ffc05c"/><stop offset="1" stop-color="#ff3857"/></linearGradient><linearGradient id="linear-gradient-2" x1="40.81" y1="533.53" x2="406.49" y2="533.53" gradientTransform="translate(62.16 -311.07)" gradientUnits="userSpaceOnUse"><stop offset="0" stop-color="#40d5e6"/><stop offset="1" stop-color="#57f"/></linearGradient><linearGradient id="linear-gradient-3" x1="40.81" y1="393.62" x2="406.49" y2="393.62" xlink:href="#linear-gradient"/><linearGradient id="linear-gradient-4" x1="40.81" y1="392.83" x2="406.49" y2="392.83" xlink:href="#linear-gradient-2"/><linearGradient id="Unbenannter_Verlauf_36-2" x1="65.11" y1="25.12" x2="66.55" y2="93.28" gradientTransform="translate(-10.18 142.57) rotate(-90)" xlink:href="#Unbenannter_Verlauf_36"/><linearGradient id="Unbenannter_Verlauf_24" x1="14.78" y1="13.97" x2="139.62" y2="113.48" gradientUnits="userSpaceOnUse"><stop offset="0" stop-color="#4690cc"/><stop offset="0" stop-color="#00b5ad"/><stop offset="0.44" stop-color="#0187ac"/><stop offset="0.8" stop-color="#0168ac"/><stop offset="1" stop-color="#015dac"/></linearGradient><linearGradient id="Unbenannter_Verlauf_24-2" x1="-8.31" y1="42.93" x2="116.53" y2="142.44" xlink:href="#Unbenannter_Verlauf_24"/><linearGradient id="Unbenannter_Verlauf_24-3" x1="-10.24" y1="45.35" x2="114.6" y2="144.87" xlink:href="#Unbenannter_Verlauf_24"/><linearGradient id="Unbenannter_Verlauf_24-4" x1="6.91" y1="23.84" x2="131.75" y2="123.35" xlink:href="#Unbenannter_Verlauf_24"/><radialGradient id="Unbenannter_Verlauf_5" cx="112.67" cy="103.59" r="16.79" gradientUnits="userSpaceOnUse"><stop offset="0" stop-color="#085da8"/><stop offset="0.97" stop-color="#10b0a9"/></radialGradient><linearGradient id="Unbenannter_Verlauf_36-3" x1="65.11" y1="197.03" x2="66.55" y2="265.18" gradientTransform="translate(-182.09 314.47) rotate(-90)" xlink:href="#Unbenannter_Verlauf_36"/><linearGradient id="Unbenannter_Verlauf_24-5" x1="55.61" y1="173.06" x2="63.45" y2="305.14" xlink:href="#Unbenannter_Verlauf_24"/><radialGradient id="Unbenannter_Verlauf_5-2" cx="113.89" cy="274.43" r="16.79" xlink:href="#Unbenannter_Verlauf_5"/><linearGradient id="Unbenannter_Verlauf_36-4" x1="509.41" y1="42.64" x2="510.69" y2="103.08" gradientTransform="translate(422.28 598.46) rotate(-90)" xlink:href="#Unbenannter_Verlauf_36"/><linearGradient id="Unbenannter_Verlauf_24-6" x1="504.73" y1="34.85" x2="515.59" y2="133.76" xlink:href="#Unbenannter_Verlauf_24"/><radialGradient id="Unbenannter_Verlauf_5-3" cx="553.07" cy="110.24" r="16.79" xlink:href="#Unbenannter_Verlauf_5"/><linearGradient id="Unbenannter_Verlauf_36-5" x1="482.4" y1="178.43" x2="483.88" y2="248.32" gradientTransform="translate(252.53 714.5) rotate(-90)" xlink:href="#Unbenannter_Verlauf_36"/><linearGradient id="Unbenannter_Verlauf_10" x1="446.7" y1="370.96" x2="499.9" y2="370.96" gradientTransform="translate(18.44 -138.13) rotate(-0.22)" gradientUnits="userSpaceOnUse"><stop offset="0" stop-color="#04808a"/><stop offset="0.97" stop-color="#0c173d"/></linearGradient><linearGradient id="linear-gradient-5" x1="512.74" y1="271.53" x2="519.07" y2="262.49" gradientTransform="matrix(1, 0, 0, 1, 0, 0)" xlink:href="#linear-gradient"/><linearGradient id="Unbenannter_Verlauf_38" x1="12444.28" y1="272.66" x2="12545.46" y2="487.35" gradientTransform="matrix(-1, 0, 0, 1, 13128.04, 0)" gradientUnits="userSpaceOnUse"><stop offset="0" stop-color="#015dac"/><stop offset="0" stop-color="#16477c"/><stop offset="0.1" stop-color="#134a82"/><stop offset="0.68" stop-color="#0658a1"/><stop offset="1" stop-color="#015dac"/></linearGradient><linearGradient id="New_Gradient_Swatch_copy_10" x1="11572.26" y1="268.85" x2="11707.8" y2="268.85" gradientTransform="matrix(-1, 0, 0, 1, 12251.12, 0)" gradientUnits="userSpaceOnUse"><stop offset="0" stop-color="#0d2447"/><stop offset="1" stop-color="#123364"/></linearGradient><linearGradient id="New_Gradient_Swatch_copy_10-2" x1="11661.77" y1="256.53" x2="11712.53" y2="256.53" xlink:href="#New_Gradient_Swatch_copy_10"/><linearGradient id="New_Gradient_Swatch_copy_10-3" x1="11660.89" y1="248.7" x2="11697.77" y2="248.7" xlink:href="#New_Gradient_Swatch_copy_10"/><linearGradient id="Unbenannter_Verlauf_53" x1="19250.15" y1="6062.56" x2="19133.4" y2="6086.68" gradientTransform="matrix(-0.13, -0.99, -0.99, 0.13, 8929.19, 18664.95)" gradientUnits="userSpaceOnUse"><stop offset="0" stop-color="#04808a"/><stop offset="0.97" stop-color="#103257"/></linearGradient><linearGradient id="Unbenannter_Verlauf_53-2" x1="19249.06" y1="6057.32" x2="19132.32" y2="6081.44" xlink:href="#Unbenannter_Verlauf_53"/><linearGradient id="Unbenannter_Verlauf_53-3" x1="19251.34" y1="6068.35" x2="19134.6" y2="6092.47" xlink:href="#Unbenannter_Verlauf_53"/><linearGradient id="Unbenannter_Verlauf_53-4" x1="430.12" y1="436.7" x2="420.22" y2="360.12" gradientTransform="matrix(1, 0, 0, 1, 0, 0)" xlink:href="#Unbenannter_Verlauf_53"/><linearGradient id="Unbenannter_Verlauf_170" x1="19165.7" y1="6057.62" x2="19233.08" y2="6057.62" gradientTransform="matrix(-0.13, -0.99, -0.99, 0.13, 8929.19, 18664.95)" gradientUnits="userSpaceOnUse"><stop offset="0" stop-color="#00808b"/><stop offset="0.97" stop-color="#12b1aa"/></linearGradient><linearGradient id="Unbenannter_Verlauf_170-2" x1="19148.99" y1="6056.62" x2="19223.15" y2="6056.62" xlink:href="#Unbenannter_Verlauf_170"/><linearGradient id="Unbenannter_Verlauf_53-5" x1="19148.69" y1="6091.27" x2="19229.19" y2="6091.27" xlink:href="#Unbenannter_Verlauf_53"/><linearGradient id="Unbenannter_Verlauf_38-2" x1="19137.66" y1="6075.16" x2="19155.96" y2="6075.16" gradientTransform="matrix(-0.13, -0.99, -0.99, 0.13, 8929.19, 18664.95)" xlink:href="#Unbenannter_Verlauf_38"/><linearGradient id="Unbenannter_Verlauf_10-2" x1="181.23" y1="174.5" x2="223.42" y2="270.32" gradientTransform="matrix(1, 0, 0, 1, 0, 0)" xlink:href="#Unbenannter_Verlauf_10"/><linearGradient id="Unbenannter_Verlauf_10-3" x1="-223.2" y1="2342.21" x2="-181.61" y2="2436.65" gradientTransform="translate(1259.3 -1946.88) rotate(20.79)" xlink:href="#Unbenannter_Verlauf_10"/><linearGradient id="Unbenannter_Verlauf_10-4" x1="-318.92" y1="2488.41" x2="-282.98" y2="2488.41" gradientTransform="translate(1197.21 -2034.08) rotate(17.74)" xlink:href="#Unbenannter_Verlauf_10"/><linearGradient id="Unbenannter_Verlauf_10-5" x1="91.9" y1="176.94" x2="230.63" y2="336.9" gradientTransform="matrix(1, 0, 0, 1, 0, 0)" xlink:href="#Unbenannter_Verlauf_10"/></defs><path class="cls-1" d="M674.05,355.47a86,86,0,0,0-8.3-7.26c2.26-4,4.38-8.15,6.2-12.18,4.07-9,6.61-17.64,5.77-24.09-2-15.2-10.66-9.24-16.58-6.91-2.89,1.14-5.12,1.41-5.61-2-.26-1.86.75-5.36,2.28-10s3.69-10.56,5.61-17.08c.5-1.73,1-3.51,1.46-5.32a.65.65,0,0,1,0-.13c.41-1.63.8-3.3,1.16-5,1.75-8.22,2.68-17,1.57-25.38,0-.32-.09-.64-.13-1-1.94-12.89-8.77-25-24.89-33.25-.83-.42-1.67-.83-2.55-1.24q-4.05-1.86-7.93-3.28c-2.18-.8-4.32-1.5-6.42-2.12-.83-.24-1.65-.47-2.46-.68a96,96,0,0,0-15.83-2.8c-19.56-1.83-36.2,2.28-52.36,1.81-1.64-.05-3.27-.15-4.9-.3l-.75-.08-.22,0-1.73-.21a59.24,59.24,0,0,1-7.32-1.46l-.12,0-.24-.06a56.87,56.87,0,0,1-16-7.28l-.12-.08-.42-.27c-.53-.36-1.06-.72-1.59-1.1l-.34-.24h0q-2.37-1.69-4.77-3.72c-5.84-4.92.73-37.69-11.55-74.58-.07-.2-.13-.4-.2-.61-.43-1.27-.89-2.55-1.36-3.82-.06-.15-.11-.29-.16-.44-.48-1.26-1-2.54-1.51-3.81-.76-1.86-1.58-3.71-2.45-5.57-1-2.07-2-4.14-3.11-6.2-.37-.68-.75-1.36-1.13-2-.05-.11-.12-.22-.18-.33s-.19-.33-.29-.5c-1-1.81-2.11-3.61-3.27-5.42l-.25-.39c-.29-.43-.57-.87-.86-1.31-1.22-1.84-2.57-3.71-4.05-5.59a132.43,132.43,0,0,0-14.68-15.64A187.83,187.83,0,0,0,457,44.5c-4.56-3.39-9.35-6.67-14.31-9.76a209,209,0,0,0-18.34-10.21c-4.1-2-8.25-3.87-12.41-5.55-1.24-.5-2.48-1-3.72-1.45-.9-.34-1.8-.67-2.7-1-1.36-.49-2.73-1-4.1-1.4q-13.68-4.43-26.54-7.49l-1.64-.38C349.3,1.71,327.46-.46,307.55.08l-2.44.08A192.27,192.27,0,0,0,255.59,8.4L254,8.9a176.81,176.81,0,0,0-33.55,14.67c-51.4,29.13-79.58,78.88-92.74,111.8-13.32,33.31-55.27-15.68-93.29,8.89-59.66,38.56-31.18,108.07,6.5,162.79l.25.36q3.93,5.7,8,11.16l1.31,1.77Q53.7,324.77,57,329c.7.91,1.4,1.8,2.11,2.69l3,3.79,1.77,2.17c.63.79,1.27,1.57,1.9,2.34l2.5,3c1.66,2,3.31,3.94,4.93,5.84h0l.56.65-.14.07h0q-2.45,1.31-5,2.69l-2.5,1.38-1.91,1.08-1.77,1-3,1.74-2.12,1.24q-3.32,1.95-6.63,4l-1.31.82c-2.69,1.67-5.36,3.38-8,5.13a2.2,2.2,0,0,0-.25.17C3.42,394-25.14,425.93,34.69,443.66c38.12,11.3,80.2-11.23,93.55,4.08,13.2,15.14,41.46,38,93,51.42a313.93,313.93,0,0,0,33.65,6.74l1.64.24a406.56,406.56,0,0,0,49.64,3.79l2.46,0a552.94,552.94,0,0,0,65.83-3.31l1.65-.17q12.9-1.43,26.61-3.45c1.38-.2,2.74-.41,4.12-.64l2.7-.45,3.73-.67c4.17-.77,8.33-1.62,12.44-2.55,6.29-1.42,12.46-3,18.4-4.7,5-1.42,9.78-2.92,14.34-4.48,5.2-1.78,10.09-3.63,14.55-5.51a124.79,124.79,0,0,0,14.73-7.19c1.48-.86,2.84-1.72,4.06-2.57l.86-.6.25-.18c1.16-.83,2.25-1.66,3.29-2.49l.28-.23.19-.15,1.12-.94q1.68-1.43,3.12-2.85c.88-.86,1.7-1.71,2.46-2.56.53-.59,1-1.18,1.51-1.76.06-.06.11-.13.17-.2.47-.59.93-1.17,1.36-1.76l.2-.28c12.32-17,5.73-32,11.58-34.29,1.61-.63,3.2-1.2,4.79-1.71h0l.33-.11,1.61-.5.41-.13.13,0a98.56,98.56,0,0,1,16.06-3.34l.24,0,.12,0q3.68-.45,7.35-.67l1.73-.1h.22l.74,0c1.64-.07,3.27-.12,4.92-.14,16.21-.22,32.9,1.67,52.5.83,5.09-.21,10.36-.62,15.88-1.29l2.47-.31q3.16-.42,6.44-1c2.59-.43,5.25-.93,8-1.51.88-.18,1.73-.37,2.56-.56,16.17-3.81,23-9.37,25-15.3,0-.14.09-.29.13-.44,1.11-3.87.17-7.89-1.58-11.67-.36-.77-.75-1.54-1.16-2.29l0-.06c-.47-.83-1-1.65-1.47-2.44-1.92-3-4-5.7-5.62-7.86s-2.55-3.74-2.29-4.59c.49-1.6,2.73-1.47,5.63-.94,5.93,1.07,14.63,3.81,16.63-3.19C680.68,363.58,678.13,359.62,674.05,355.47Z"/><ellipse class="cls-2" cx="177.95" cy="493.18" rx="50.54" ry="7.28"/><ellipse class="cls-2" cx="275.99" cy="467.41" rx="122.9" ry="5.52"/><ellipse class="cls-2" cx="448.4" cy="463.84" rx="36.14" ry="2.76"/><ellipse class="cls-2" cx="611.37" cy="495.12" rx="62.05" ry="7.28"/><g class="cls-3"><rect class="cls-4" x="188.22" y="-32.39" width="195.19" height="365.68" rx="8.68" transform="translate(436.26 -135.35) rotate(90)"/></g><g class="cls-5"><g class="cls-6"><path class="cls-7" d="M468.65,230.08v3.33c-5.11-.86-10.2-1.76-15.32-2.69q-5.88-1.07-11.78-2.17l-1.9-.34c-11-2-22-4.08-33.46-6l-.13,0c-2.85-.48-5.72-.93-8.61-1.38-8.93-1.38-18.08-2.63-27.59-3.66-12.84-1.41-26.32-2.41-40.67-2.82-10.59-.29-21.68-.27-33.33.18a365.25,365.25,0,0,0-41.77,3.87c-4.34.68-8.46,1.4-12.41,2.16-1.53.29-3,.58-4.49.89-1.06.21-2.11.44-3.13.66H234c-2.81.6-5.55,1.22-8.2,1.84l-1.38.31L215,226.53l-2.22.53c-14.5,3.49-28.57,6.56-45.65,7.76h-.2c-1.44.1-2.91.18-4.38.25-1.27.06-2.55.12-3.86.15s-2.42.06-3.67.09c-5.57.07-10.63,0-15.17-.15a173.48,173.48,0,0,1-25.2-2.49c-2.07-.38-3.84-.77-5.32-1.13-4.36-1.1-6.28-2-6.35-2.18v-3.92s1.49,1.24,6.35,2.63c1.46.42,3.21.85,5.32,1.27a164.59,164.59,0,0,0,25.2,2.66c4.28.18,9.06.29,14.35.29H155c1.25,0,2.48,0,3.71-.05s2.59-.07,3.88-.13l2.09-.11,2.27-.14.2,0c15.66-1.13,28.76-4.29,43.45-7.84,3.17-.77,6.38-1.54,9.71-2.32,2.22-.53,4.5-1,6.83-1.56l.07,0c2.22-.49,4.51-1,6.86-1.45l.74-.16c6.66-1.33,13.8-2.59,21.7-3.67A386.91,386.91,0,0,1,295,211.54c12.33-.47,24-.5,35.14-.17,14,.39,27.14,1.34,39.68,2.66,12.25,1.29,23.94,2.92,35.25,4.74,2.93.47,5.85.95,8.74,1.44l.86.15c9.09,1.55,18,3.19,26.84,4.83l1.71.32,10.07,1.85Q461,228.77,468.65,230.08Z"/></g><g class="cls-8"><path class="cls-9" d="M468.65,205.07v3.53c-5.42.78-10.85,1.71-16.33,2.76-3.58.68-7.15,1.42-10.77,2.19-8.44,1.82-17,3.89-25.65,6.13l-2,.53c-2.24.58-4.47,1.18-6.73,1.78l-.93.25c-11,2.95-22.24,6.15-33.83,9.45-6,1.72-11.82,3.13-17.39,4.26-3.41.7-6.73,1.29-10,1.79-5.17.79-10.14,1.34-14.93,1.68-4.12.29-8.09.42-12,.42-19.46,0-36.08-3.41-51.72-7.79-2.91-.82-5.76-1.66-8.61-2.53-3.75-1.13-7.44-2.3-11.13-3.46q-4.92-1.56-9.92-3.1l-2.74-.83-.48-.14q-2.94-.88-5.89-1.72l-.5-.14c-1.5-.42-3-.84-4.5-1.23l-1.71-.46-.51-.13A223.38,223.38,0,0,0,193.68,213c-9.59-1.28-18.43-2-26.52-2.24l-.24,0c-1.47-.05-2.91-.07-4.33-.1s-2.64,0-3.91,0c-6.93,0-13.2.34-18.84.87a154.39,154.39,0,0,0-25.2,4.29c-2,.54-3.81,1.06-5.32,1.54A55.51,55.51,0,0,0,103,219.7v-4.43a41.15,41.15,0,0,1,6.35-2.15c1.48-.4,3.23-.84,5.32-1.3,2.72-.6,6-1.23,9.91-1.86,4.25-.68,9.36-1.31,15.29-1.76,5.55-.42,11.83-.68,18.84-.66,1.29,0,2.57,0,3.91.05s2.86.06,4.33.11h.24c8.76.3,18.51,1.06,29.19,2.44,7.18.93,13.92,2.18,20.37,3.64,1.49.33,3,.68,4.42,1a.35.35,0,0,1,.11,0c.79.19,1.57.38,2.33.58,1,.24,1.92.49,2.87.74l.06,0c2.29.6,4.55,1.23,6.78,1.87h0l1.47.43q3.5,1,6.9,2.07c2.14.65,4.25,1.31,6.36,2l3.84,1.21c24.86,7.85,47.28,14.93,77.31,12.67a192.69,192.69,0,0,0,38.25-7.13l2.42-.69c9.32-2.66,18.51-5.28,27.59-7.77l7.66-2.07L408,218c11.31-3,22.47-5.75,33.51-8.08,2.38-.51,4.77-1,7.14-1.45C455.38,207.15,462,206,468.65,205.07Z"/></g></g><g class="cls-5"><g class="cls-6"><path class="cls-10" d="M468.65,89.38v3.33c-5.11-.86-10.2-1.76-15.32-2.69l-11.78-2.16-1.9-.35c-11-2-22-4.08-33.46-6l-.13,0q-4.28-.7-8.61-1.38c-8.93-1.38-18.08-2.63-27.59-3.66-12.84-1.4-26.32-2.41-40.67-2.82-10.59-.29-21.68-.26-33.33.18a365.25,365.25,0,0,0-41.77,3.87c-4.34.68-8.46,1.4-12.41,2.16-1.53.29-3,.59-4.49.89l-3.13.66H234c-2.81.6-5.55,1.22-8.2,1.84l-1.38.32c-3.22.75-6.35,1.5-9.41,2.25l-2.22.52c-14.5,3.49-28.57,6.56-45.65,7.76h-.2c-1.44.1-2.91.18-4.38.25-1.27.06-2.55.12-3.86.15s-2.42.07-3.67.09c-5.57.07-10.63,0-15.17-.15A173.77,173.77,0,0,1,114.64,92c-2.07-.39-3.84-.78-5.32-1.14-4.36-1.1-6.28-2-6.35-2.18V84.75s1.49,1.24,6.35,2.63c1.46.42,3.21.85,5.32,1.27a164.59,164.59,0,0,0,25.2,2.66c4.28.18,9.06.29,14.35.29H155c1.25,0,2.48,0,3.71,0s2.59-.08,3.88-.14l2.09-.11,2.27-.14.2,0c15.66-1.13,28.76-4.29,43.45-7.84,3.17-.77,6.38-1.54,9.71-2.32,2.22-.53,4.5-1,6.83-1.56l.07,0q3.33-.73,6.86-1.45l.74-.16c6.66-1.33,13.8-2.59,21.7-3.67A386.91,386.91,0,0,1,295,70.84c12.33-.47,24-.5,35.14-.17,14,.39,27.14,1.34,39.68,2.66,12.25,1.29,23.94,2.93,35.25,4.74,2.93.47,5.85,1,8.74,1.44l.86.15c9.09,1.55,18,3.19,26.84,4.83l1.71.32,10.07,1.85Q461,88.07,468.65,89.38Z"/></g><g class="cls-8"><path class="cls-11" d="M468.65,64.37V67.9c-5.42.78-10.85,1.71-16.33,2.76-3.58.68-7.15,1.42-10.77,2.19-8.44,1.82-17,3.89-25.65,6.13l-2,.53c-2.24.58-4.47,1.18-6.73,1.79l-.93.24c-11,3-22.24,6.16-33.83,9.45-6,1.72-11.82,3.13-17.39,4.27q-5.12,1-10,1.78c-5.17.79-10.14,1.34-14.93,1.68-4.12.29-8.09.42-12,.42-19.46,0-36.08-3.41-51.72-7.79-2.91-.82-5.76-1.66-8.61-2.53-3.75-1.13-7.44-2.3-11.13-3.46q-4.92-1.56-9.92-3.1L234,81.43l-.48-.14c-2-.58-3.92-1.16-5.89-1.72l-.5-.14c-1.5-.42-3-.84-4.5-1.23l-1.71-.46-.51-.13a223.38,223.38,0,0,0-26.71-5.31c-9.59-1.28-18.43-2-26.52-2.24l-.24,0C165.45,70,164,70,162.59,70s-2.64,0-3.91,0c-6.93,0-13.2.34-18.84.87a155.48,155.48,0,0,0-25.2,4.29c-2,.54-3.81,1.06-5.32,1.54A55.51,55.51,0,0,0,103,79V74.58a39.06,39.06,0,0,1,6.35-2.16c1.48-.4,3.23-.84,5.32-1.29,2.72-.61,6-1.24,9.91-1.86,4.25-.69,9.36-1.32,15.29-1.77,5.55-.42,11.83-.68,18.84-.66,1.29,0,2.57,0,3.91,0s2.86.06,4.33.11h.24c8.76.3,18.51,1.06,29.19,2.44,7.18.93,13.92,2.18,20.37,3.64,1.49.33,3,.68,4.42,1l.11,0c.79.19,1.57.38,2.33.58,1,.24,1.92.49,2.87.74l.06,0c2.29.6,4.55,1.23,6.78,1.87h0l1.47.43q3.5,1,6.9,2.07c2.14.65,4.25,1.31,6.36,2l3.84,1.21c24.86,7.85,47.28,14.93,77.31,12.67a192,192,0,0,0,38.25-7.13l2.42-.69c9.32-2.66,18.51-5.28,27.59-7.77l7.66-2.07,2.93-.78c11.31-3,22.47-5.75,33.51-8.08,2.38-.51,4.77-1,7.14-1.45C455.38,66.45,462,65.31,468.65,64.37Z"/></g></g><g class="cls-12"><g id="Rechteck_13316" data-name="Rechteck 13316"><rect class="cls-13" x="301.72" y="123.28" width="46.98" height="1.04"/></g><g id="Rechteck_13318" data-name="Rechteck 13318"><rect class="cls-13" x="208" y="123.28" width="46.17" height="1.04"/></g><path class="cls-13" d="M394.83,173.58a14.67,14.67,0,1,1,14.67,14.49A14.6,14.6,0,0,1,394.83,173.58Zm26.73,0a12.07,12.07,0,1,0-12.06,11.89A12,12,0,0,0,421.56,173.58Z"/><path class="cls-13" d="M136.58,173.13a14.84,14.84,0,1,1,14.84,14.49A14.69,14.69,0,0,1,136.58,173.13Zm27.08,0A12.25,12.25,0,1,0,151.42,185,12.09,12.09,0,0,0,163.66,173.13Z"/><g id="Rechteck_13291" data-name="Rechteck 13291"><rect class="cls-13" x="347.79" y="123.28" width="0.91" height="34.6"/></g><g id="Rechteck_13295" data-name="Rechteck 13295"><rect class="cls-13" x="302.76" y="173.23" width="31.24" height="0.69"/></g><g id="Rechteck_13317" data-name="Rechteck 13317"><rect class="cls-13" x="222.58" y="173.23" width="31.59" height="0.69"/></g><g id="Rechteck_13320" data-name="Rechteck 13320"><rect class="cls-13" x="164.96" y="173.23" width="28.81" height="0.69"/></g><g id="Rechteck_13319" data-name="Rechteck 13319"><rect class="cls-13" x="207.99" y="123.28" width="0.91" height="37.34"/></g><g id="Rechteck_13298" data-name="Rechteck 13298"><rect class="cls-13" x="363.16" y="173.23" width="31.24" height="0.69"/></g><path class="cls-13" d="M253.41,190.3V160.67h50.46V190.3Zm3.25-26.38v23.13h44V163.92Z"/><path class="cls-13" d="M253.41,138.61v-30h50.46v30Zm3.25-26.73v23.48h44V111.88Z"/><path class="cls-13" d="M332.09,173.58l16.22-16.22,16.22,16.22L348.31,189.8Zm16.22-14.38-14.38,14.38L348.31,188l14.38-14.38Z"/><g id="Gruppe_1095" data-name="Gruppe 1095"><g id="Rechteck_13296" data-name="Rechteck 13296" class="cls-14"><rect class="cls-13" x="342.92" y="172.79" width="11.57" height="1.99" rx="0.69" transform="translate(-33.05 251.63) rotate(-38.02)"/></g><g id="Rechteck_13297" data-name="Rechteck 13297" class="cls-14"><rect class="cls-13" x="347.71" y="168" width="1.99" height="11.56" rx="0.69" transform="translate(-20.75 297.47) rotate(-45)"/></g></g><path class="cls-13" d="M192.3,175l16.21-16.21L224.73,175l-16.22,16.22Zm16.21-14.38L194.13,175l14.38,14.38L222.89,175Z"/><g id="Gruppe_1095-2" data-name="Gruppe 1095-2"><g id="Rechteck_13296-2" data-name="Rechteck 13296-2" class="cls-14"><rect class="cls-13" x="202.95" y="173.5" width="11.57" height="1.99" rx="0.69" transform="translate(-63.19 165.57) rotate(-38.02)"/></g><g id="Rechteck_13297-2" data-name="Rechteck 13297-2" class="cls-14"><rect class="cls-13" x="207.73" y="168.71" width="1.99" height="11.56" rx="0.69" transform="translate(-62.25 198.7) rotate(-45)"/></g></g><path class="cls-13" d="M395.21,173.79a14.49,14.49,0,1,1,14.49,14.83A14.68,14.68,0,0,1,395.21,173.79Zm26.38,0A11.89,11.89,0,1,0,409.7,186,12.08,12.08,0,0,0,421.59,173.79Z"/></g><g class="cls-3"><rect class="cls-15" x="20.19" y="15.54" width="92.01" height="121.67" rx="8.68" transform="translate(142.57 10.18) rotate(90)"/></g><g class="cls-16"><path class="cls-17" d="M79,95.46l.06,0a.72.72,0,0,0,0,.11c-.47-.8-3.25-5.58-6.18-11.92a1.29,1.29,0,0,1,.27-.81c.66-.67,1.89-.63,3.27-.1h0a5.25,5.25,0,0,0,4.06-.2,6,6,0,1,0-4.72-11.12,6.08,6.08,0,0,0-3,2.8h0c-.64,1.17-1.43,2.12-2.37,2.12a1.16,1.16,0,0,1-.73-.34c-2.5-6.47-4-11.7-4.2-12.59a1.58,1.58,0,0,1,.09.17l0,0s4.8-1.33,11.14-3.69c.81-.5,1.64-1.19,1.64-1.82,0-.94-1-1.74-2.39-2.32h0a5.16,5.16,0,0,1-2.66-3A6.09,6.09,0,1,1,84.72,52h0c-.35,1.28-.44,2.51.24,3.17.45.43,1.49.3,2.42,0,5.71-2.71,9.95-5.18,10.39-5.47l13.53,32"/></g><g class="cls-16"><path class="cls-18" d="M22.6,64.44c.55.07,5.44.65,11.95.89.9-.14,1.85-.42,2.08-1,.37-.86-.19-2-1-3h0a6,6,0,0,1-1.4-3.87,6.08,6.08,0,0,1,12.16,0,5.21,5.21,0,0,1-1.3,3.82v0c-1,1.06-1.65,2.18-1.28,3,.22.54,1.16.83,2,1,6.41-.26,11.23-.87,11.85-.95,0,.17-.7,5.69-.93,13a1.62,1.62,0,0,0,.73,1.06c.87.37,2-.19,3-1v0A6,6,0,0,1,64.41,76a6,6,0,1,1,0,12.09,5.19,5.19,0,0,1-3.81-1.35h0c-1.06-.51-2.19-1.59-3.06-1.23a1.8,1.8,0,0,0-.74,1.1c.24,7,.92,12.36,1,12.89-.11,0-34.63-.08-35.18,0"/><path class="cls-19" d="M57.78,99.6v0h0Z"/><path class="cls-20" d="M57.78,64.36h0Z"/></g><g class="cls-21"><circle class="cls-22" cx="112.16" cy="110.68" r="8.36"/><circle class="cls-23" cx="112.16" cy="110.68" r="6.83"/><g class="cls-24"><path class="cls-13" d="M115.93,113.85a.4.4,0,0,1,.42.62,5.91,5.91,0,0,1-10.55-3.75,6,6,0,0,1,2.82-5.11.24.24,0,0,1,.34.29A6,6,0,0,0,114.5,114,5.66,5.66,0,0,0,115.93,113.85Z"/></g><g class="cls-24"><path class="cls-13" d="M111.59,104.42l.25.35a5.53,5.53,0,0,1,5.24,2.58,5.61,5.61,0,0,1,.37,5.89l.25.35a6,6,0,0,0-.3-6.47A5.9,5.9,0,0,0,111.59,104.42Z"/></g></g><g class="cls-3"><rect class="cls-25" x="20.19" y="187.44" width="92.01" height="121.67" rx="8.68" transform="translate(314.47 182.09) rotate(90)"/></g><g class="cls-16"><path class="cls-26" d="M95.43,263.82l-5.56-4.93a4.51,4.51,0,0,0,4-4.48V220a4.54,4.54,0,0,0-4.54-4.54H33A4.53,4.53,0,0,0,28.51,220v34.45a4.52,4.52,0,0,0,4.23,4.5L27,263.81a3.86,3.86,0,0,0-1.61,1.38l-.06.05h0a3.8,3.8,0,0,0,3.22,5.87H93.83a3.82,3.82,0,0,0,1.6-7.29ZM61.21,218.1a.83.83,0,1,1-.82.83A.82.82,0,0,1,61.21,218.1Zm-30.4,36.7V220.53h60.8V254.8Zm-.74,13.75a.76.76,0,0,1,0-1.51.76.76,0,1,1,0,1.51Zm3,0a.76.76,0,1,1,.75-.75A.76.76,0,0,1,33.08,268.55Zm3.2,0a.76.76,0,0,1,0-1.51.76.76,0,1,1,0,1.51Zm27.64,0H57.54a.76.76,0,0,1,0-1.51h6.38a.76.76,0,1,1,0,1.51Zm-34.82-4.7L34,259.62H35.5l-4.17,3.5H91.11l-4-3.5h1.53l4.77,4.23Z"/></g><g class="cls-21"><circle class="cls-22" cx="113.38" cy="281.52" r="8.36"/><circle class="cls-27" cx="113.38" cy="281.52" r="6.83"/><g class="cls-24"><path class="cls-13" d="M117.15,284.7a.4.4,0,0,1,.42.62A5.92,5.92,0,0,1,107,281.56a6,6,0,0,1,2.82-5.1.23.23,0,0,1,.34.28,6,6,0,0,0,5.54,8.13A6.15,6.15,0,0,0,117.15,284.7Z"/></g><g class="cls-24"><path class="cls-13" d="M112.81,275.26l.25.36a5.51,5.51,0,0,1,5.24,2.57,5.59,5.59,0,0,1,.37,5.89l.25.36a6,6,0,0,0-.3-6.48A5.9,5.9,0,0,0,112.81,275.26Z"/></g></g><g class="cls-3"><rect class="cls-28" x="469.57" y="33.3" width="81.6" height="109.58" rx="8.68" transform="translate(598.46 -422.28) rotate(90)"/></g><g class="cls-16"><path class="cls-29" d="M527.06,87.37a11.38,11.38,0,0,1-.52,3.36,12.7,12.7,0,0,1-1.46,3.12,15.06,15.06,0,0,1-2.24,2.72A16.13,16.13,0,0,1,520,98.8a10,10,0,0,1,2.39,3.41,11,11,0,0,1,.81,4.32,11.72,11.72,0,0,1-1.1,5.17,10.93,10.93,0,0,1-3.08,3.83,13.42,13.42,0,0,1-4.69,2.34,21.29,21.29,0,0,1-6,.79,19.42,19.42,0,0,1-4-.39,24.58,24.58,0,0,1-3.26-.91,13.76,13.76,0,0,1-2.35-1.09,7.13,7.13,0,0,1-1.2-.83,2.93,2.93,0,0,1-.42-.5,1.85,1.85,0,0,1-.23-.58,5.38,5.38,0,0,1-.12-.81c0-.3-.05-.66-.05-1.08a8,8,0,0,1,.09-1.29,3.47,3.47,0,0,1,.23-.89,1,1,0,0,1,.35-.5.82.82,0,0,1,.5-.14,2.53,2.53,0,0,1,1.39.56,21.67,21.67,0,0,0,2.06,1.22,17.75,17.75,0,0,0,3,1.23,14.66,14.66,0,0,0,4.32.56,12.23,12.23,0,0,0,3-.37,7,7,0,0,0,2.41-1.13,5.34,5.34,0,0,0,1.56-1.87,5.93,5.93,0,0,0,.56-2.66,7,7,0,0,0-.42-2.53,5.49,5.49,0,0,0-1.33-2,10.27,10.27,0,0,0-2.37-1.66c-1-.51-2.14-1-3.53-1.6L505,98a37.6,37.6,0,0,1-4.49-2.21,14.34,14.34,0,0,1-3.39-2.68,10.81,10.81,0,0,1-2.14-3.45,12.54,12.54,0,0,1-.75-4.55,10.89,10.89,0,0,1,.52-3.34,12.44,12.44,0,0,1,1.48-3.1,15.8,15.8,0,0,1,2.28-2.74,13.61,13.61,0,0,1,3-2.17A10.61,10.61,0,0,1,499,70.16a12.36,12.36,0,0,1-.83-4.74,10.58,10.58,0,0,1,1-4.59,10,10,0,0,1,2.76-3.51,12.7,12.7,0,0,1,4.26-2.23,18.44,18.44,0,0,1,5.47-.77,19.14,19.14,0,0,1,3.09.25,19.82,19.82,0,0,1,2.7.65,11.67,11.67,0,0,1,2.1.87,8.18,8.18,0,0,1,1.17.73,1.83,1.83,0,0,1,.41.46,1.78,1.78,0,0,1,.21.56c.06.23.1.52.15.85a9.82,9.82,0,0,1,.06,1.16,7.37,7.37,0,0,1-.09,1.23,4.28,4.28,0,0,1-.2.85,1.06,1.06,0,0,1-.34.48.79.79,0,0,1-.49.14,1.9,1.9,0,0,1-1-.45,12.86,12.86,0,0,0-1.66-1,16.6,16.6,0,0,0-2.56-1,12,12,0,0,0-3.6-.48,8.06,8.06,0,0,0-3,.5,6.21,6.21,0,0,0-2,1.25,4.46,4.46,0,0,0-1.15,1.72A5.85,5.85,0,0,0,505,65a7.31,7.31,0,0,0,.44,2.68,5.72,5.72,0,0,0,1.35,2,10.93,10.93,0,0,0,2.34,1.73,29,29,0,0,0,3.52,1.64l3.61,1.46a36.15,36.15,0,0,1,4.49,2.2,14.53,14.53,0,0,1,3.39,2.66,10.59,10.59,0,0,1,2.14,3.45A12.47,12.47,0,0,1,527.06,87.37Zm-6.86.5a6.42,6.42,0,0,0-1.7-4.64,14.6,14.6,0,0,0-5.32-3.14l-3.5-1.45c-.69-.28-1.33-.56-1.91-.83s-1.15-.57-1.7-.87a8,8,0,0,0-3.8,3.26A8.61,8.61,0,0,0,501,84.62a7.59,7.59,0,0,0,.41,2.58,6,6,0,0,0,1.29,2,10,10,0,0,0,2.21,1.7,21,21,0,0,0,3.11,1.5l3.49,1.41a18.18,18.18,0,0,1,1.92.81c.58.29,1.15.6,1.7.94A7.84,7.84,0,0,0,519,92.29,8.82,8.82,0,0,0,520.2,87.87Z"/></g><g class="cls-21"><circle class="cls-22" cx="552.56" cy="117.32" r="8.36"/><circle class="cls-30" cx="552.56" cy="117.32" r="6.83"/><g class="cls-24"><path class="cls-13" d="M556.33,120.5a.4.4,0,0,1,.42.62,5.91,5.91,0,0,1-10.55-3.75,6,6,0,0,1,2.82-5.11.24.24,0,0,1,.34.29,6,6,0,0,0,5.54,8.13A6.15,6.15,0,0,0,556.33,120.5Z"/></g><g class="cls-24"><path class="cls-13" d="M552,111.07l.26.35a5.51,5.51,0,0,1,5.24,2.57,5.62,5.62,0,0,1,.37,5.9l.25.35a6,6,0,0,0-.3-6.47A5.89,5.89,0,0,0,552,111.07Z"/></g></g><g class="cls-3"><rect class="cls-31" x="436.25" y="173.23" width="94.53" height="115.5" rx="8.68" transform="translate(714.5 -252.53) rotate(90)"/></g><g class="cls-32"><path class="cls-33" d="M519.55,202.74s-11.56,9.43-26.57.62c-15,8.93-26.45-.35-26.45-.35-1.72,42.07,26.66,56.23,26.66,56.23S521.58,244.8,519.55,202.74Z"/><path class="cls-34" d="M515.31,208.28s-10,6.83-22.31-.63c-12.27,7.55-22.31.84-22.31.84-1.41,35.58,22.48,46.41,22.48,46.41S516.78,243.89,515.31,208.28Z"/><path class="cls-35" d="M493.14,259.24l-.14-.08V203.4c15,8.74,26.5-.66,26.5-.66C521.53,244.8,493.14,259.24,493.14,259.24Z"/></g><g class="cls-21"><circle class="cls-22" cx="517.36" cy="264.93" r="8.36"/><circle class="cls-36" cx="517.36" cy="264.93" r="6.83"/><g class="cls-24"><path class="cls-13" d="M521.13,268.11a.4.4,0,0,1,.42.62A5.91,5.91,0,0,1,511,265a6,6,0,0,1,2.82-5.11.24.24,0,0,1,.34.29,6,6,0,0,0,5.54,8.12A6.15,6.15,0,0,0,521.13,268.11Z"/></g><g class="cls-24"><path class="cls-13" d="M516.79,258.68l.25.35a5.51,5.51,0,0,1,5.24,2.57,5.59,5.59,0,0,1,.37,5.89l.25.36a6,6,0,0,0-.3-6.47A5.87,5.87,0,0,0,516.79,258.68Z"/></g></g><path class="cls-37" d="M527.55,274.14l1.33-1.5-5.43-2.52s-6.3-.43-5.94-2.77c.15-1,6.9-.35,6.9-.35l3.16.44-4.87-1.17s-7.58.66-7.27-2c.13-1.11,8.43-1,8.43-1l4,.58-4.76-1.26s-5.14.29-5.12-.7c0-1.95,7-2.21,7-2.21l4.11,1.14-3.32-1.87s-2-.7-2.08-1.3c-.2-1.06,1.9-1.1,3.91-.62,1.28.3,8.43,5.65,13,8.15,2.67,1.46,4,.71,4,.71l.35,7.06a34.91,34.91,0,0,0-12.32,3.32s-7.35.78-9.54-.32S524.22,273.41,527.55,274.14Z"/><path class="cls-37" d="M644.45,317.71s-1.66,3.32-3.32,3.87-4.09,3.25-4.09,3.25l11.7,6.16s3.11-6.09,3.25-10S644.45,317.71,644.45,317.71Z"/><path class="cls-38" d="M609.47,179.42c1.45,6.17,3.82,11.05,6.63,10.39s3.9-6.2,2.45-12.37-4.89-10.64-7.7-10S608,173.25,609.47,179.42Z"/><path class="cls-39" d="M600.19,480.45s-.68,3.66-.58,3.74,11.79,2,11.44-1c-.29-2.39-.7-5-.7-5Z"/><path class="cls-39" d="M638.82,479.92s0,3.7.13,3.77,11.4,1.33,11.11-1.55a30.51,30.51,0,0,0-1.1-5.05Z"/><path class="cls-40" d="M597.4,316.51s-2.69,86.26-1.71,94.93c1.21,10.72,2.52,64.94,1.89,68.09s15.88.5,15.88.5,7.44-138.88,9.74-136,5.14,53.59,6.83,62S637,481,637,481s11.66,1.72,14.78-.92c0,0,1.42-56.76.33-72.53-.41-6,7-72.07-2.51-98.66C644.49,294.78,597.4,316.51,597.4,316.51Z"/><path class="cls-41" d="M653.06,494.74s-38.39,2.55-40.26.9c-2.35-2.07,22.33-11,26.1-12.37,6.15.78,9.84,0,11.58-.57C653.15,485.8,653.06,494.74,653.06,494.74Z"/><path class="cls-41" d="M613.5,495.3s-38.38,2.54-40.26.89c-2.35-2.07,22.33-10.95,26.1-12.37,6.16.78,9.84,0,11.58-.57C613.59,486.35,613.5,495.3,613.5,495.3Z"/><path class="cls-37" d="M651.7,342l2-1.2.78,7.14s-1.66,7.64.87,7.82c1,.07,2.66-8.15,2.66-8.15l.6-3.89-.42,6.12s-3.21,8.88-.38,9.2c1.19.14,3.89-9.8,3.89-9.8l.73-4.89-.29,6s-2,6.07-1,6.3c2,.48,4.6-7.76,4.6-7.76l.21-5.2.81,4.44s.07,2.53.65,2.83c1,.51,1.77-2,1.94-4.51.11-1.6-3-11.54-4.05-17.67-.61-3.57.62-5,.62-5l-7.15-2.26a49.49,49.49,0,0,1-7.53,13.85S648,344,648.38,346.91,651.35,346.2,651.7,342Z"/><path class="cls-13" d="M543.32,276.51c7.48-1.05,40.87,2.52,43,1.73,2.87-1.05,1,1.08,5.93-15.91,1.46-5,2.57-9.12,2.73-9.45v0a49.12,49.12,0,0,0,.08,9.13c0,.33.07.66.1,1,0,.08,0,.17,0,.26a43.5,43.5,0,0,0,1.06,5.7,52.34,52.34,0,0,1,1.23,10.68v.11a2.53,2.53,0,0,1,0,.28s0,.07,0,.11c.2,7.29-.3,15.15-.51,19.33-.33,6.48-1.47,12.2-1.4,12.28l1,5.09s21.8,33.71,55.38-2.8l-2.29-20a137.7,137.7,0,0,0,1.36-16.16c.15-7.77,4.31-23.55,5-26.07a.43.43,0,0,1,0-.05.25.25,0,0,0,0-.07,1,1,0,0,0,0-.11s0,0,0-.06h0v0s-.33-.87-.33-.87l4.1,32.68c.26.62-7.92,44.82-7.92,44.82s16.6,1.59,16.6.94c0-.08,10.27-44.46,10.27-44.55-.56-17.19-7.87-47.3-9.58-52.8-3.62-7.27-6.75-13.16-7.75-13.88-1.52-1.09-7.91-3.83-13.48-6l-.54-.21-1.53-.6-.74-.29-.39-.15-.32-.12h0a41,41,0,0,0-5.34-1.82h-.34l-.71,0c-3.44.2-13.73,1.17-17,1.48l-1,.1h0l-3.94,1.8h0l-.22.1c-1.43.65-3.09,1.53-4.85,2.49-3.43,1.89-7.24,4.09-10.39,5.59s-7.32,3.52-7.68,3.8L578,265.31l-34.33-1.79Z"/><path class="cls-13" d="M667.4,330.6s-11.48-.54-13.52-.71l4.5-7.59,9,2.77Z"/><path class="cls-13" d="M541.77,275.35s1.05-9.67,1.15-11.72l7.32,3.44-2.46,9.11Z"/><path class="cls-42" d="M543.32,276.51c7.48-1.05,40.87,2.52,43,1.73,2.87-1.05,1,1.08,5.93-15.91,1.46-5,2.57-9.12,2.73-9.45v0a49.12,49.12,0,0,0,.08,9.13c0,.33.07.66.1,1,0,.08,0,.17,0,.26a43.5,43.5,0,0,0,1.06,5.7,52.34,52.34,0,0,1,1.23,10.68v.11a2.53,2.53,0,0,1,0,.28s0,.07,0,.11c.2,7.29-.3,15.15-.51,19.33-.33,6.48-1.47,12.2-1.4,12.28l1,5.09S611.7,331,652,314l-2.29-20a137.7,137.7,0,0,0,1.36-16.16c.15-7.77,4.31-23.55,5-26.07a.43.43,0,0,1,0-.05.25.25,0,0,0,0-.07,1,1,0,0,0,0-.11s0,0,0-.06h0v0s-.33-.87-.33-.87l4.1,32.68c.26.62-7.92,44.82-7.92,44.82s16.6,1.59,16.6.94c0-.08,10.27-44.46,10.27-44.55-.56-17.19-7.87-47.3-9.58-52.8-3.62-7.27-6.75-13.16-7.75-13.88-1.52-1.09-7.91-3.83-13.48-6l-.54-.21-1.53-.6-.74-.29-.39-.15-.32-.12h0a41,41,0,0,0-5.34-1.82h-.34l-.71,0c-3.44.2-13.73,1.17-17,1.48l-1,.1h0l-3.94,1.8h0l-.22.1c-1.43.65-3.09,1.53-4.85,2.49-3.43,1.89-7.24,4.09-10.39,5.59s-7.32,3.52-7.68,3.8L578,265.31l-34.33-1.79Z"/><path class="cls-37" d="M639.09,206.94c-.14,7.4-14.47,11.45-14.47,11.45s-6-7.52-4.57-8.24c.57-.28.79-1.4.87-2.66a26.83,26.83,0,0,0-.09-3.36c0-.52-.08-.86-.08-.86s2-2.16,4.65-4.73c4.56-4.5,10.81-10.27,10.82-8a1.83,1.83,0,0,1-.05.43C635.07,196.16,639.09,206.94,639.09,206.94Z"/><path class="cls-13" d="M644.58,210.45l-5.49-3.63s-.45,3.29-14.77,11.57l4.35,9.17Z"/><path class="cls-13" d="M620.51,208.53s.23,3.43,3.81,9.86l-7.65,8.06L615.81,212Z"/><path class="cls-37" d="M636.33,190.67c-1.24,2.69-2.42,4.65-2.75,5.42h0a9.06,9.06,0,0,1-1.67,2.26c-2.36,2.55-6.75,5.9-11.07,5.78a6.88,6.88,0,0,1-1.42-.17,6.76,6.76,0,0,1-4.93-3.41c-8.94-17.5-2.47-31.81-2.47-31.81s24.45-6.92,28.27.44C643,174.34,639.24,184.33,636.33,190.67Z"/><path class="cls-38" d="M636.22,170.67c-1.28-.54-4.76,1-9.1,1.5a47.71,47.71,0,0,1-13.6-.23c-3.53-.62-8-1.42-8.95-4.65-.69-2.37,1.45-7,2.92-8.62,3.93-4.17,17.27-3.2,25.43-6.21,7.09-2.61,16.69,9.51,8,18.06C631.74,172.59,636.22,170.67,636.22,170.67Z"/><path class="cls-38" d="M636,191.85c-.87-2.4-2-9.74-6-11.64,0,0-.63-7.4,0-8.29,1.37-2,12-5,13.28-4.19,2.91,1.69-6,22.71-6.45,23.71C636.3,192.67,636,191.85,636,191.85Z"/><path class="cls-37" d="M631.75,177.23c.37-3.85,7.33-5.32,6.86-1.29s-3.89,7.91-5.47,7.77S631.46,180.16,631.75,177.23Z"/><g class="cls-43"><path class="cls-44" d="M534.92,250c-.92.73-4.25-.3-9.42-1.53-2.16-.52-3.94-1.06-4-2.21-.31-3.36,2-12.84,3.74-12.69,11.84,1,13.47,4.13,13.47,4.13.42.76.1,4.15.1,4.15l4.16,1.76-3.24,7.71Z"/><g class="cls-45"><path class="cls-37" d="M520.89,246.76c2,1.4,5.21,1.73,8.07,2.25s1.66-3.07,1.66-3.07c2.43,1.12,2.93.11,3.17-.67.33-1.05-1.93-2.73-1.93-2.73a28.93,28.93,0,0,0,3.23,1.69c1,.38,1.87-1.12,1-2.59s-6.58-4.73-6.58-4.73L534,238.3c3.33,1,4.73.49,3.76-1.27-.67-1.23-3.19-2.25-8.85-3.26-4.26-.76-4.24-.33-4.24-.33S518.93,245.4,520.89,246.76Z"/></g><path class="cls-46" d="M589.35,258.32c-10.7,14.08-8.2,12.76-11.26,12.71-2.28,0-32.14-15.37-39.5-17.07l5-12L575,256"/></g><g class="cls-47"><path class="cls-44" d="M552.93,226.9c-1.18,0-3.13-2.89-6.39-7.08-1.37-1.76-2.42-3.3-1.78-4.26,1.86-2.81,9.58-8.78,10.85-7.57,8.6,8.2,7.93,11.65,7.93,11.65-.15.85-2.52,3.31-2.52,3.31l2.15,4-7.35,4Z"/><g class="cls-45"><path class="cls-37" d="M544,215.56c.7,2.37,3,4.62,4.89,6.81s3.21-1.36,3.21-1.36c1.2,2.39,2.23,1.92,2.9,1.47.91-.62.2-3.34.2-3.34a27.8,27.8,0,0,0,1.47,3.33c.58.95,2.16.3,2.43-1.37s-2.18-7.8-2.18-7.8.63,1,2.58,3.85,3.39,3.34,3.74,1.36c.24-1.38-1.09-3.75-4.87-8.08-2.85-3.26-3.1-2.91-3.1-2.91S543.36,213.29,544,215.56Z"/></g><path class="cls-48" d="M590.23,267.39c-17.15,4.3-14.38,4.84-16.73,2.89-1.76-1.45-15.48-32.09-20.15-38l11.41-6.2,15.73,30.56"/></g><g class="cls-12"><path class="cls-49" d="M448.22,429c-1.29-3.74-8.39-.86-11.33-8.66-.61-1.61,5.56-4.41,5.42-6.32-.06-.89-6.52-.8-6.56-1.73-.41-10.91,4.86-18.42,2.73-24.84-.74-2.25,4-2.36,3.46-4.12-.19-.6-4.95.64-5.38.16-2.49-2.8-7.85-8.1-8.8-11.29-.69-2.34-.29-6.09.2-9.64.11-.77,5-.62,5.08-1.36.35-2.44-4.9-.7-5.06-1.94-.45-3.43-5.46-16.15.17-18.35,4.21-1.64,15.18,14.61,16.53,18.95.16.5-3.91,4.92-3.38,5.31s5.76-3.53,6.3-3.16c4.16,2.88,10,6.7,11.35,10.57,1.67,4.93-1.79,14.32-1.23,17.44.86,4.85,7.9,13.75,9.24,22.83.08.56-6.71-.73-6.67-.17.06,1,6.9,3.8,6.8,4.76-.07.71-12.5-5.05-12.67-4.35-.23.92,11.76,8.29,11.33,9.19-3.24,6.88-9.24,4.39-12.06,4.3S448.22,429,448.22,429Z"/><path class="cls-50" d="M447.49,417.44c.38-.1.76-.18,1.14-.25a207,207,0,0,1-.64,31.52.72.72,0,0,1-1.43-.17A215.94,215.94,0,0,0,447.49,417.44Z"/><path class="cls-51" d="M431.89,353.92c.24-.21.38.07,1.06.86,9.95,12.43,14.28,37.68,15.55,60-.37.07-.74.14-1.11.23-1-22.1-5-46.37-14-58.87-.67-.89-1-1.27-1.5-1.85A.24.24,0,0,1,431.89,353.92Z"/><path class="cls-52" d="M455.55,421.71c-.26-.12-.58-.23-.93-.35-1.51-.52-3.73-1.14-5.89-1.75l-1.18-.33c-3-.83-5.52-1.6-5.56-2-.06-.65,10.69.22,13.46,0,.43,0,.67-.1.64-.19s-.22-.27-.52-.39c-1.69-.68-6.89-1.06-7.79-1.78a.31.31,0,0,1-.12-.14c-.05-.12.28-.27.81-.44,1.83-.58,6.07-1.35,5.86-1.76a37,37,0,0,0-6.25-8.12l-.43-.44h0c-.37-.38-.75-.75-1.12-1.11-3.06-3-6.13-5.54-8.06-7.75a12.07,12.07,0,0,1-1.42-1.92c-1.3-2.25-1.44-7.4-2.42-11.83a20.19,20.19,0,0,0-1.06-3.45c-.05-.11-.63.15-1.5.63-3,1.64-9.4,5.79-9.62,5.44s5.5-4.77,8.21-7.12c.9-.77,1.47-1.31,1.41-1.38a12.58,12.58,0,0,0-4.08-2.68c-4.75-2.14-11.41-3.31-14.58-4.85-.52-.25-3.51,4.72-4,4.4s1.51-5.86,1-6.19c-.9-.63-1.27-2-3.44-3,0,0-8.56-1-12.42.43a2.55,2.55,0,0,0-1.13.67,2.35,2.35,0,0,0-.46,1.18,12.34,12.34,0,0,0,2.42,9.72,7,7,0,0,0,1,1,8.38,8.38,0,0,0,1.91,1.19c2,.95,4.07,3.34,6.29,3.49a13.62,13.62,0,0,0,4.24,0c.19.19-.31,1.05-1,2.15l0,8.19c3.65,1.95,7.64,3.88,10.33,7.68.42.6,5.74-1.43,6.09-.74s-4.41,3.81-4.18,4.42c2.54,6.89,1.91,17,4.52,23.78.4,1,8.26-1.55,8.82-.71.35.53-6.64,4.54-6.2,5,5.63,5.74,10.76,2.07,13.59,3.9a2.91,2.91,0,0,1,.72.65s.15-.29.43-.73a11.75,11.75,0,0,1,1.43-1.83,6.72,6.72,0,0,1,2.7-1.78,15.13,15.13,0,0,1,1.56-.37l1.29-.26a11.65,11.65,0,0,0,4.47-1.79,7.09,7.09,0,0,0,1.24-1.16h0a6,6,0,0,0,.42-.57,9.25,9.25,0,0,0,1.44-4.4C456.51,422.17,456.16,422,455.55,421.71Z"/><path class="cls-53" d="M453,435.53c1.45-3,7,.14,10.26-6,.66-1.27-4.16-4.21-3.86-5.78.14-.73,5.48,0,5.61-.77,1.43-9-2.17-15.74.23-20.85.84-1.79-3.09-2.36-2.45-3.76.22-.48,4,1,4.44.68,2.34-2.07,7.31-5.92,8.42-8.47.81-1.87.85-5,.8-8,0-.65-4.05-1-4.07-1.63,0-2.06,4.13-.09,4.39-1.11.72-2.79,6.14-12.82,1.7-15.21-3.32-1.78-14,10.58-15.6,14-.18.4,2.75,4.47,2.27,4.73s-4.42-3.5-4.9-3.24c-3.73,2-9,4.54-10.46,7.61-1.87,3.92,0,12-.73,14.56-1.2,3.94-7.92,10.61-9.94,18-.13.46,5.62.07,5.54.53-.15.8-6.1,2.45-6.11,3.26,0,.59,10.85-2.93,10.93-2.33.09.78-10.57,5.68-10.31,6.47,2,6,7.21,4.56,9.56,4.77S453,435.53,453,435.53Z"/><path class="cls-54" d="M473.79,375a.22.22,0,1,1,.29.33c-.47.43-.78.71-1.43,1.38-13.7,14.88-20.09,55.23-20.15,75.21a.66.66,0,0,1-.66.65.65.65,0,0,1-.65-.66C451.24,434.47,458,389.2,473.79,375Z"/><path class="cls-55" d="M410.77,377.06a.25.25,0,0,0-.31.38c18.94,16,30.91,51,33.81,75.72a.63.63,0,0,0,1.26-.14C442.89,430.42,430.78,393.64,410.77,377.06Z"/><path class="cls-56" d="M459.8,447.82l-.72,1.36s-.41,14.33-4,14.35l-13.13.07c-3.56,0-4.16-14.13-4.16-14.13l-.74-1.54a.58.58,0,0,1,.58-.58l21.61-.11A.58.58,0,0,1,459.8,447.82Z"/></g><g class="cls-57"><polygon class="cls-58" points="259.33 375.62 259.14 324.04 245.59 324.07 245.78 375.65 259.33 375.62"/><polygon class="cls-58" points="259.29 363.18 259.2 340.61 245.65 340.65 245.73 363.21 259.29 363.18"/><polygon class="cls-59" points="225.25 377.92 206.66 328.81 221.1 324.88 239.69 373.98 225.25 377.92"/><polygon class="cls-59" points="220.77 366.08 212.64 344.6 227.07 340.66 235.21 362.14 220.77 366.08"/><polygon class="cls-60" points="266.42 324.01 266.48 340.59 266.56 363.16 266.61 375.6 259.03 375.62 258.98 363.18 258.9 340.61 258.84 324.04 266.42 324.01"/><polygon class="cls-61" points="274 324 274.06 340.57 274.15 363.14 274.19 375.57 266.61 375.6 266.56 363.16 266.48 340.59 266.42 324.01 274 324"/><polygon class="cls-61" points="199.47 325.7 194.89 341.81 188.66 363.75 185.22 375.84 177.85 374.33 181.29 362.24 187.52 340.3 192.1 324.19 199.47 325.7"/><polygon class="cls-60" points="213.56 375.81 213.37 324.23 202.42 324.25 202.61 375.83 213.56 375.81"/><polygon class="cls-13" points="213.51 363.37 213.43 340.8 202.48 340.83 202.56 363.4 213.51 363.37"/><path class="cls-62" d="M273.41,348.86V376l1.66-1.41h-100l1.66,1.41V350.75c0-1.82-3.33-1.82-3.33,0V376a1.57,1.57,0,0,0,1.66,1.41h100a1.57,1.57,0,0,0,1.66-1.41V348.86c0-1.82-3.33-1.82-3.33,0Z"/><rect class="cls-58" x="225.65" y="410.84" width="51.58" height="13.56" transform="translate(669.08 166.21) rotate(90.01)"/><rect class="cls-58" x="240.16" y="412.91" width="22.57" height="13.56" transform="translate(671.15 168.28) rotate(90.01)"/><rect class="cls-60" x="208.67" y="407.41" width="51.58" height="20.41" transform="translate(652.09 183.19) rotate(90.01)"/><rect class="cls-61" x="223.18" y="409.48" width="22.57" height="20.41" transform="translate(654.16 185.26) rotate(90.01)"/><rect class="cls-59" x="190.86" y="410.03" width="51.58" height="15.16" transform="translate(634.29 201) rotate(90.01)"/><rect class="cls-59" x="205.37" y="412.1" width="22.57" height="15.16" transform="translate(636.36 203.07) rotate(90.01)"/><polygon class="cls-60" points="201.91 393.37 198.45 409.69 193.73 431.89 191.13 444.13 176.21 441.85 178.81 429.61 183.53 407.4 186.99 391.09 201.91 393.37"/><polygon class="cls-60" points="265.5 391.82 265.5 408.4 265.5 430.97 265.5 443.4 257.91 443.4 257.92 430.97 257.92 408.4 257.92 391.82 265.5 391.82"/><polygon class="cls-61" points="273.08 391.82 273.08 408.4 273.08 430.97 273.08 443.4 265.5 443.4 265.5 430.97 265.5 408.4 265.5 391.82 273.08 391.82"/><rect class="cls-58" x="177.81" y="412.13" width="51.58" height="10.95" transform="translate(621.23 214.05) rotate(90.01)"/><rect class="cls-58" x="192.31" y="414.21" width="22.57" height="10.95" transform="translate(623.3 216.12) rotate(90.01)"/><path class="cls-62" d="M276.62,415.83h.09V346H273.4v69.8h.12a1.63,1.63,0,0,0-.11.55v25.43H176.73q0-13.73,0-27.44a1.33,1.33,0,0,0,0-.21V346h-3.3v69.8h0v27.48a1.61,1.61,0,0,0,1.66,1.5h100a1.61,1.61,0,0,0,1.66-1.51q0-13.46,0-26.92A1.44,1.44,0,0,0,276.62,415.83Z"/><rect class="cls-62" x="178" y="443.4" width="95.16" height="4.18"/><rect class="cls-62" x="185.45" y="446.76" width="2.23" height="23.21"/><rect class="cls-62" x="263.27" y="446.76" width="2.23" height="23.21"/></g><g class="cls-57"><polygon class="cls-58" points="368.77 375.62 368.58 324.04 355.02 324.07 355.21 375.65 368.77 375.62"/><polygon class="cls-58" points="368.72 363.18 368.64 340.61 355.08 340.65 355.17 363.21 368.72 363.18"/><polygon class="cls-59" points="334.69 377.92 316.1 328.81 330.54 324.88 349.12 373.98 334.69 377.92"/><polygon class="cls-59" points="330.2 366.08 322.07 344.6 336.51 340.66 344.64 362.14 330.2 366.08"/><polygon class="cls-60" points="375.86 324.01 375.92 340.59 376 363.16 376.05 375.6 368.46 375.62 368.42 363.18 368.33 340.61 368.27 324.04 375.86 324.01"/><polygon class="cls-61" points="383.44 324 383.5 340.57 383.58 363.14 383.63 375.57 376.05 375.6 376 363.16 375.92 340.59 375.86 324.01 383.44 324"/><polygon class="cls-61" points="308.9 325.7 304.32 341.81 298.09 363.75 294.66 375.84 287.29 374.33 290.72 362.24 296.95 340.3 301.53 324.19 308.9 325.7"/><polygon class="cls-60" points="323 375.81 322.81 324.23 311.86 324.25 312.05 375.83 323 375.81"/><polygon class="cls-13" points="322.95 363.37 322.87 340.8 311.92 340.83 312 363.4 322.95 363.37"/><path class="cls-62" d="M382.85,348.86V376l1.67-1.41h-100l1.66,1.41V350.75c0-1.82-3.32-1.82-3.32,0V376a1.58,1.58,0,0,0,1.67,1.41h100a1.57,1.57,0,0,0,1.66-1.41V348.86c0-1.82-3.32-1.82-3.32,0Z"/><rect class="cls-58" x="335.09" y="410.84" width="51.58" height="13.56" transform="translate(778.53 56.77) rotate(90.01)"/><rect class="cls-58" x="349.6" y="412.91" width="22.57" height="13.56" transform="translate(780.6 58.85) rotate(90.01)"/><rect class="cls-60" x="318.1" y="407.41" width="51.58" height="20.41" transform="translate(761.54 73.76) rotate(90.01)"/><rect class="cls-61" x="332.61" y="409.48" width="22.57" height="20.41" transform="translate(763.61 75.83) rotate(90.01)"/><rect class="cls-59" x="300.3" y="410.03" width="51.58" height="15.16" transform="translate(743.73 91.56) rotate(90.01)"/><rect class="cls-59" x="314.81" y="412.1" width="22.57" height="15.16" transform="translate(745.8 93.63) rotate(90.01)"/><polygon class="cls-60" points="311.35 393.37 307.88 409.69 303.17 431.89 300.57 444.13 285.65 441.85 288.25 429.61 292.96 407.4 296.43 391.09 311.35 393.37"/><polygon class="cls-60" points="374.94 391.82 374.93 408.4 374.93 430.97 374.93 443.4 367.35 443.4 367.35 430.97 367.35 408.4 367.35 391.82 374.94 391.82"/><polygon class="cls-61" points="382.52 391.82 382.52 408.4 382.51 430.97 382.51 443.4 374.93 443.4 374.93 430.97 374.93 408.4 374.94 391.82 382.52 391.82"/><rect class="cls-58" x="287.24" y="412.13" width="51.58" height="10.95" transform="translate(730.67 104.62) rotate(90.01)"/><rect class="cls-58" x="301.75" y="414.21" width="22.57" height="10.95" transform="translate(732.74 106.69) rotate(90.01)"/><path class="cls-62" d="M386.06,415.83h.08V346h-3.3v69.8H383a1.42,1.42,0,0,0-.11.55q0,12.72,0,25.43H286.17V414.36a1.36,1.36,0,0,0,0-.21V346h-3.31v69.8h0q0,13.74,0,27.48a1.62,1.62,0,0,0,1.67,1.5h100a1.61,1.61,0,0,0,1.66-1.51V416.39A1.43,1.43,0,0,0,386.06,415.83Z"/><rect class="cls-62" x="287.43" y="443.4" width="95.16" height="4.18"/><rect class="cls-62" x="294.89" y="446.76" width="2.23" height="23.21"/><rect class="cls-62" x="372.7" y="446.76" width="2.23" height="23.21"/></g><path class="cls-37" d="M171.52,494.83l-11.79.73a16.36,16.36,0,0,1-2.48-2.84c-2-2.87-5.58-2-5.58-2-1,1-1,4.91-.92,6.26a1.77,1.77,0,0,1,0,.23l-1.38.08c-.56-1.21-2.6-6.79-2.21-8.94,0-.11,0-.23.07-.35.06-.32.14-.69.24-1.09a.79.79,0,0,0,.05-.22c.1-.44.21-.92.33-1.41a1.24,1.24,0,0,1,0-.16c.4-1.63.84-3.38,1.05-4.47,1-5.07,2-8.31,2.69-13.62l8-.49c-1.28,7.32-2.07,12.56-1.83,13.4,1.09,3.77,7.37,10.8,9.64,12.42h.06l.28.07h0a8.25,8.25,0,0,1,2.65,1.26A6.64,6.64,0,0,1,171.52,494.83Z"/><path class="cls-38" d="M159.79,496.67c-1.18.08-3.63-2.26-5.32-3.41a4.15,4.15,0,0,0-2.44-1c-1.05,1-1.31,3.91-1.27,4.94l-1.39.09c-.56-1.21-2.6-6.78-2.22-8.94a39,39,0,0,0,1.26-7.41c4.18-2.74,8.43,5.38,14.31,9.74,2.95,2.19,4.67,1.68,4.67,1.68l.06,0a15.23,15.23,0,0,1,3.52.86,5.52,5.52,0,0,1,2.85,2.53Z"/><path class="cls-37" d="M209.75,495.34H197.94a16.48,16.48,0,0,1-2.3-3c-1.86-3-5.44-2.31-5.44-2.31-1,.9-1.27,4.85-1.31,6.19,0,.08,0,.16,0,.23H187.5c-.49-1.24-2.18-6.94-1.67-9.06,0-.22.12-.45.2-.69.2-.7.46-1.49.71-2.39l0-.1c.5-1.6,1-3.32,1.33-4.4.91-3.53.82-8.29.23-13.42h8.28c0,7.22.14,12.41.33,13.26.85,3.83,6.68,11.24,8.85,13l.05,0,.26.07h0a8.36,8.36,0,0,1,2.58,1.44A6.43,6.43,0,0,1,209.75,495.34Z"/><path class="cls-38" d="M197.94,496.46c-1.19,0-3.49-2.48-5.1-3.74a4.12,4.12,0,0,0-2.38-1.12c-1.11,1-1.55,3.82-1.57,4.86H187.5c-.49-1.24-2.18-6.93-1.67-9.06a39.75,39.75,0,0,0,1.72-7.33c4.35-2.47,8.08,5.9,13.68,10.62,2.81,2.37,4.56,2,4.56,2l.05,0a15.47,15.47,0,0,1,3.47,1.08,5.47,5.47,0,0,1,2.68,2.71Z"/><path class="cls-37" d="M239.8,177.17a1.16,1.16,0,0,0-1.61.71L236.4,182l1.06-6.16a1.21,1.21,0,1,0-2.33-.4l-.82,4.76L234,174a1.18,1.18,0,0,0-1.27-1.24,1.51,1.51,0,0,0-1.11,1.62l.54,10.06-2.72-3.11a1.79,1.79,0,0,0-2.54-.19l-3.34,2.65a1.67,1.67,0,0,0-.42,2,1,1,0,0,0,1.63.38l3.14-2.5.43.49h0l.12.14a5.78,5.78,0,0,1,1.18,3.05,6.15,6.15,0,0,1-.42,2.87,3,3,0,0,1-1.15,1.21,2.65,2.65,0,0,1-3.51-1,8,8,0,0,1-.21-2,1.25,1.25,0,0,0-1.12-1.42,1.44,1.44,0,0,0-1.26,1.46c-.1,2,.52,5.55,3,7.42l-1.66,7.49,7.28,1.25,1-7.88c2.14-2.24,4-6.48,4.67-8.25a1.51,1.51,0,0,0,.24-.39l3.83-8.91A1.51,1.51,0,0,0,239.8,177.17Z"/><path class="cls-63" d="M186.4,209.22c3,1.27,2.95.61,7.94,4.09,4.6,3.2,22.71,15,22.71,15s12.92,5,11.8,7.75c-3.27,8-6.91,9-13.46,6.24-3.74-1.59-29.18-12.74-29.18-12.74a24.62,24.62,0,0,1-.54,2.41Z"/><path class="cls-64" d="M212.32,238.22l10.12-39.36c3.12-2.78,9.85,3.76,9.85,3.76s.38,42.07-9.85,41.5C214.62,243.69,212.32,238.22,212.32,238.22Z"/><path class="cls-38" d="M197.35,305s3.32,76.37,2.54,84.72c-1,10.34-1,78-.37,81s-15.27.77-15.27.77-10.92-135.07-13.07-132.22-2.18,48-3.66,56.11-5.83,77.42-5.83,77.42-11.18,1.87-14.23-.61c0,0-2.4-54.55-1.65-69.73.29-5.79-.82-67.08-.08-93.24C146.14,294.8,197.35,305,197.35,305Z"/><path class="cls-65" d="M155.83,224.41S145.18,251,149.45,256c2.68,3.11,13.77,14.25,13,15.41s-11.18,9.09-11.18,9.09-20.14-25-19.27-30.53,10.88-37.78,21.53-41.36c2.87-1,.58,2.5,3.1,6C160.14,219.53,155.83,224.41,155.83,224.41Z"/><path class="cls-37" d="M167.1,164.76s11.75-4.74,17.46,4.15,5.64,27-.28,29.37-14.94,1.45-18.15-4.12-6.19-13.68-6.2-19.14S164,166.42,167.1,164.76Z"/><path class="cls-37" d="M180.89,196.76s.92,11.32,1.89,12.76-17-1.07-17-1.07,1.81-8.92-.61-16.07S180.89,196.76,180.89,196.76Z"/><path class="cls-66" d="M186.79,209.38C143.38,201,139.88,222,153.62,264.77c1.09,3.4-9,39.36-9.3,49.85,11,7.47,46.07,13.84,54.62-6.34,1.72-3.87-15.15-41.61-7.78-50.32a42.15,42.15,0,0,0,4.45-6l3.57-6.19c1.84-3.18-.39-7.25-1-10.87-1-5.68-8.09-8.92-11.39-14.95C184.8,216.32,189.08,209.82,186.79,209.38Z"/><path class="cls-38" d="M164.21,238.08s-12-.74-14.13-9.56,8.37-25.29,5.24-33.32-8.19-12.8,3.44-29.3c10.42-14.79,22.31-4.06,30.91-2.71a7.25,7.25,0,0,1,4.91,3h0s2.09,2.94-5.73,9.79-12,10.32-11.55,18.34,8.79,6.61,12.13,10.29,1.2,6.29,1.2,6.29-.36-.47-4.48-1.27c-4.35-.84-9.4,0-7.05,2.26,3.91,3.82,6,4.74,1.79,13.67s-10.2,9.34-10.2,9.34,5.06,1.14,7.9-1.69C178.59,233.24,177.35,239,164.21,238.08Z"/></svg>